<svg width="68" height="82" viewBox="0 0 68 82" fill="none" xmlns="http://www.w3.org/2000/svg">
<path d="M14.401 81.1223C15.4232 81.2678 38.8026 81.3384 42.7127 81.22C42.9038 81.2137 43.095 81.1763 43.3235 81.1514C43.338 80.981 43.3713 80.8543 43.3567 80.7317C43.1843 79.1735 43.1864 77.6091 43.2861 76.0529C43.4108 74.0979 43.6642 72.145 44.2543 70.271C45.1767 67.3415 47.1879 65.5901 50.2233 65.0873C51.4428 64.8858 52.6748 65 53.884 65.2847C54.3681 65.3989 54.8522 65.5194 55.3383 65.6275C56.801 65.9537 58.1743 65.6711 59.4832 64.9938C60.0524 64.6988 60.5386 64.2978 60.925 63.7888C61.5629 62.9432 61.7706 61.9875 61.5109 60.9612C61.3468 60.3192 61.112 59.6959 60.9084 59.0643C60.7671 58.6218 60.5947 58.1855 60.4887 57.7346C60.2374 56.6667 60.4721 55.763 61.4486 55.1314C61.727 54.9527 61.9971 54.7491 62.2298 54.5164C62.718 54.0302 62.8925 53.4423 62.6204 52.7858C62.4687 52.4201 62.2734 52.069 62.076 51.7262C61.8122 51.2649 61.4964 50.8328 61.2533 50.3612C60.6342 49.1582 60.8378 48.001 61.862 47.1284C62.4396 46.636 63.0795 46.2101 63.7194 45.7925C64.6087 45.2129 65.5706 44.7392 66.3788 44.0411C66.7278 43.7398 67.081 43.4178 67.3345 43.0397C67.9474 42.1297 67.9931 41.1573 67.3677 40.239C67.0166 39.7217 66.5824 39.2522 66.1419 38.8055C65.3483 38.0015 64.5089 37.2452 63.7111 36.4453C61.8018 34.5298 60.3786 32.3213 59.6889 29.6765C59.452 28.7727 59.29 27.8585 59.2546 26.9278C59.2069 25.6667 59.2214 24.4035 59.1632 23.1424C59.0801 21.3515 58.9679 19.5606 58.6708 17.7884C58.4444 16.4441 58.0974 15.1332 57.6362 13.845C56.6431 11.0714 54.9332 8.82969 52.6603 7.00139C50.5702 5.3206 48.2142 4.10935 45.7044 3.18481C42.6088 2.0442 39.4093 1.32327 36.1599 0.785165C32.6737 0.209667 29.1729 -0.114441 25.6409 0.0372247C20.8396 0.242908 16.3311 1.44377 12.2881 4.1322C9.48956 5.99374 7.13977 8.32067 5.19928 11.0569C3.47694 13.4856 2.1535 16.1242 1.28298 18.9705C0.171463 22.598 -0.22744 26.3107 0.123672 30.0982C0.711639 36.4287 2.92638 42.1546 6.52896 47.3653C7.36 48.5682 8.25961 49.7171 9.27141 50.7788C10.9792 52.5697 12.0513 54.7283 12.8117 57.0594C13.6302 59.5671 14.0562 62.1516 14.3387 64.7632C14.7771 68.8353 14.8166 72.9178 14.5963 77.0045C14.5402 78.0662 14.4634 79.1257 14.4031 80.1874C14.3865 80.4803 14.401 80.7733 14.401 81.1223ZM5.01646 30.2208C5.0497 29.5975 5.20967 28.9638 5.68752 28.4486C5.86827 28.2533 6.04903 28.0601 6.23809 27.871C7.92719 26.1778 9.61422 24.4845 11.3054 22.7954C16.8485 17.2544 22.3915 11.7155 27.9367 6.17657C28.1486 5.96673 28.3626 5.75274 28.5995 5.57406C29.3952 4.97571 30.2699 4.82197 31.2339 5.11491C31.7969 5.28528 32.2249 5.63224 32.63 6.03529C34.5373 7.93216 36.4487 9.82486 38.358 11.7196C38.6883 12.0479 39.0353 12.3595 39.3345 12.7127C40.259 13.8014 40.2798 15.2578 39.4051 16.3756C39.241 16.5833 39.0582 16.7786 38.8712 16.9677C37.7472 18.0979 36.619 19.224 35.493 20.3521C30.2844 25.5711 25.0779 30.7901 19.8672 36.0069C18.8118 37.0644 17.7709 38.1407 16.6781 39.1566C15.5894 40.1684 13.9959 40.1559 12.8657 39.194C12.6122 38.98 12.3774 38.7432 12.1427 38.5084C10.358 36.7258 8.57125 34.9411 6.79073 33.1544C6.41676 32.7783 6.05319 32.3898 5.68545 32.0075C5.22214 31.5235 5.05801 30.9251 5.01646 30.2208Z" fill="#02C088"/>
<path d="M23.7775 16.2617C21.2781 18.7424 18.8161 21.1961 16.3355 23.7037C17.1021 24.6594 17.9768 25.4178 18.787 26.2384C19.5745 27.0362 20.3453 27.8527 21.1721 28.5799C21.8432 28.1394 27.4839 22.5714 28.6973 21.1649C28.6162 21.0465 28.5435 20.901 28.4334 20.7909C27.004 19.3553 25.5705 17.9259 24.1348 16.4965C24.0683 16.43 23.9748 16.3885 23.7775 16.2617Z" fill="#02C088"/>
</svg>
