<svg width="88" height="89" viewBox="0 0 88 89" fill="none" xmlns="http://www.w3.org/2000/svg">
<path d="M77.2488 54.647C77.0502 55.1978 76.8939 55.7698 76.645 56.2967C74.8338 60.1204 72.2414 63.3165 68.807 65.7976C66.7019 67.3202 64.7477 68.9884 63.1139 71.0168C60.2091 74.6233 58.3661 78.7012 57.6511 83.2796C57.5796 83.7403 57.5055 84.201 57.4525 84.6618C57.1348 87.4607 54.7701 89.0415 52.5008 88.9992C49.408 88.9383 46.3151 88.9859 43.2223 88.9859C38.6466 88.9859 34.0709 88.9859 29.4952 88.9859C29.1563 88.9859 28.8173 88.9939 28.4784 88.9806C25.8304 88.8933 23.855 86.9629 23.712 84.3149C23.6909 83.9336 23.7173 83.5523 23.6829 83.171C23.6035 82.2336 23.0792 81.7225 22.1338 81.6511C21.7976 81.6246 21.456 81.6405 21.117 81.6405C18.1089 81.6405 15.1008 81.6272 12.0927 81.6431C10.5119 81.6511 9.08464 81.2035 7.80567 80.2953C6.5214 79.3844 5.61845 78.1769 5.163 76.6676C4.6996 75.1291 4.27857 73.5747 3.8443 72.0283C3.62717 71.2551 3.41003 70.4792 3.21143 69.7007C2.62358 67.3732 3.81253 65.2177 6.10037 64.5081C6.53464 64.373 7.01393 64.3413 7.47467 64.3333C8.8728 64.3121 10.2709 64.3254 11.6691 64.3227C11.9656 64.3227 12.2649 64.3307 12.5588 64.2989C13.0089 64.2512 13.2976 63.9758 13.3426 63.5972C13.3876 63.2212 13.1546 62.8902 12.7309 62.7551C12.5297 62.6916 12.3205 62.6492 12.1139 62.6095C10.1147 62.2493 8.11549 61.8892 6.11362 61.5344C4.66518 61.2775 3.51066 60.5917 2.72421 59.3127C2.18667 58.4416 1.99602 57.5254 2.16284 56.5191C2.36673 55.2984 2.82748 54.1598 3.27499 53.0185C3.47359 52.5128 3.66424 52.0017 3.87343 51.4562C3.1929 50.6353 2.54945 49.8568 1.90334 49.0783C1.63325 48.7526 1.34462 48.4402 1.09041 48.1039C-0.906158 45.4638 -0.0773435 41.9473 2.89368 40.4751C4.10645 39.874 5.32982 39.2914 6.55318 38.7089C9.09259 37.4987 10.827 35.5578 11.7379 32.9072C13.2102 28.6307 15.2571 24.6614 18.003 21.0601C18.2837 20.6921 18.5194 20.2843 18.8239 19.9347C19.131 19.5826 19.4329 19.5667 19.8486 19.8076C20.0314 19.9136 20.2035 20.0407 20.3677 20.1731C22.817 22.159 25.555 23.679 28.3645 25.0718C33.8405 27.786 39.5496 29.9017 45.4175 31.5911C46.3866 31.8692 47.1493 32.3378 47.8404 33.0872C52.5326 38.1713 57.6299 42.8106 63.1827 46.9441C67.4883 50.1455 72.072 52.8332 77.1561 54.6126C77.1958 54.6258 77.2302 54.6523 77.2673 54.6708C77.2726 54.6761 77.2488 54.647 77.2488 54.647Z" fill="#02C088"/>
<path d="M77.2725 54.6761C77.5797 53.7202 78.0749 52.8252 78.2364 51.7686C77.6088 51.5356 77.0157 51.3238 76.4278 51.0934C73.2953 49.87 70.4169 48.178 67.6419 46.3006C62.5789 42.8714 57.937 38.9313 53.6023 34.623C53.3958 34.4191 53.221 34.1834 53.0383 33.9584C53.0224 33.9372 53.0515 33.8789 53.0754 33.7439C53.8141 33.8948 54.5556 34.0299 55.2864 34.1967C59.4993 35.1685 63.7599 35.8464 68.0708 36.1774C70.1389 36.3362 72.2096 36.4925 74.283 36.5348C75.8029 36.5666 77.3255 36.4104 78.8481 36.3309C78.9672 36.3256 79.0864 36.2542 79.2559 36.1932C79.4042 35.2082 79.0122 34.3158 78.8031 33.3096C78.4112 33.3096 78.0802 33.2911 77.7492 33.3123C74.8682 33.495 71.9925 33.4288 69.1221 33.1163C66.5562 32.8383 63.9771 32.6317 61.4297 32.2213C58.0906 31.6864 54.7648 31.0324 51.5051 30.1082C50.7319 29.8884 49.9534 29.6898 49.1775 29.4806C48.7592 29.3694 48.4255 29.1576 48.1316 28.8133C45.2532 25.4239 42.4278 21.9975 40.042 18.2294C38.5909 15.9336 37.3437 13.5345 36.3163 11.0216C36.221 10.7886 36.1098 10.5609 36.0012 10.3331C35.9853 10.2987 35.935 10.2828 35.8688 10.2325C34.9182 10.2325 34.0391 10.7515 33.0037 10.8204C32.9057 10.6615 32.7654 10.5026 32.7045 10.3173C32.2782 9.02505 32.0001 7.70106 31.9551 6.34C31.9366 5.79187 31.971 5.23844 32.0478 4.69561C32.3947 2.27007 33.9941 0.368823 36.9863 0.0537137C39.0517 -0.16342 41.0271 0.305271 42.9627 0.964617C45.6187 1.87022 48.0919 3.15979 50.4909 4.60293C50.7425 4.75387 50.9993 4.91539 51.2112 5.11664C51.7381 5.6224 51.8229 6.4777 51.4415 7.10262C51.0602 7.72754 50.2659 8.02411 49.5641 7.75932C49.212 7.62692 48.8836 7.42302 48.5553 7.22972C46.5455 6.04608 44.4906 4.96041 42.2955 4.15542C40.9794 3.67084 39.6342 3.29748 38.2229 3.25247C37.6297 3.23393 37.0445 3.271 36.4779 3.50402C35.8794 3.75028 35.4875 4.17131 35.3498 4.78299C35.2386 5.27287 35.1486 5.79187 35.183 6.28704C35.2651 7.51305 35.5325 8.70729 35.9827 9.94389C36.3243 9.92801 36.6579 9.95448 36.9677 9.88829C38.9643 9.45137 40.9979 9.32956 43.0289 9.29514C46.2171 9.24218 49.3629 9.62349 52.461 10.402C58.9327 12.0305 64.6761 15.0968 69.9085 19.1827C74.2221 22.5509 77.1136 26.8671 78.5727 32.1445C78.6521 32.4278 78.7528 32.7032 78.8587 33.0369C79.0679 33.0475 79.2744 33.0845 79.4757 33.0607C80.6566 32.9151 81.8006 32.6052 82.9127 32.1922C83.2649 32.0624 83.6038 31.8638 83.9136 31.6493C84.7292 31.08 84.8828 30.4922 84.483 29.5627C84.3664 29.2926 84.197 29.0411 84.0937 28.7683C83.8395 28.0905 84.0487 27.3623 84.5942 26.9518C85.1344 26.544 86.077 26.5387 86.6066 27.0021C86.8873 27.2484 87.1442 27.5556 87.311 27.8866C88.3781 29.9917 88.3119 32.5046 85.9658 34.2073C85.2058 34.758 84.3823 35.1976 83.482 35.4545C82.5076 35.7325 81.5146 35.9443 80.5295 36.1853C80.2436 36.2542 79.9576 36.3177 79.5895 36.4051C79.6822 37.4246 79.7961 38.4228 79.857 39.4264C79.9205 40.4406 79.9761 41.4574 79.9549 42.4689C79.9364 43.4831 79.857 44.4999 79.7351 45.5088C79.616 46.515 79.4439 47.5213 79.2373 48.5143C79.0308 49.5046 78.7554 50.4817 78.4906 51.533C78.6998 51.6521 78.8957 51.811 79.1182 51.8798C80.0185 52.1579 80.9479 52.2188 81.8826 52.1526C83.2119 52.0573 83.9719 51.3291 84.1122 49.9971C84.2314 48.885 84.0566 47.794 83.723 46.7401C83.4052 45.7339 83.0266 44.7436 82.6559 43.7532C82.4784 43.2792 82.2878 42.8052 82.0627 42.3524C81.6708 41.566 82.2931 40.5836 82.8862 40.3241C83.6647 39.9825 84.5015 40.2446 84.9781 40.9967C85.002 41.0337 85.0258 41.0682 85.0443 41.1052C86.2094 43.6102 87.1813 46.1761 87.3851 48.9671C87.4249 49.5126 87.4063 50.0713 87.3401 50.6141C87.0277 53.1615 85.5342 54.6496 83.0901 55.2004C81.0909 55.6506 79.1367 55.3964 77.2408 54.639C77.2487 54.647 77.2725 54.6761 77.2725 54.6761Z" fill="#02C088"/>
<path d="M42.7961 27.3751C41.827 27.3406 40.4182 26.8984 37.1215 25.5453C35.3235 24.8065 33.5229 24.0624 31.77 23.2257C29.9773 22.3704 28.227 21.4224 26.482 20.4718C24.7767 19.5424 23.1296 18.5149 21.6229 17.2386C20.7226 17.8688 20.1427 18.7188 19.3589 19.4152C17.831 18.1866 16.5918 16.8229 15.8742 15.0593C14.9951 12.9065 15.7047 10.7405 17.6695 9.38208C18.9088 8.52413 20.3042 8.03426 21.7633 7.73239C23.7148 7.32725 25.6902 7.09952 27.6841 7.09158C28.0231 7.08893 28.3647 7.07569 28.6983 7.12336C29.4503 7.23457 30.0038 7.85685 30.0488 8.58504C30.0991 9.41121 29.6225 10.0706 28.7883 10.2321C28.2508 10.3353 27.6947 10.3459 27.1492 10.4068C25.5101 10.5922 23.8711 10.7723 22.2346 10.9709C21.427 11.0688 20.6723 11.3601 19.9574 11.7282C18.7472 12.3505 18.4612 13.2852 19.1418 14.4635C19.719 15.4671 20.5584 16.2456 21.5144 17.0135C21.7765 16.8202 22.0546 16.6455 22.2955 16.431C25.0388 14.0134 28.2323 12.4034 31.6561 11.2065C31.7753 11.1642 31.8944 11.1165 32.0189 11.0874C32.5511 10.9576 32.9033 11.0927 33.1946 11.5825C33.3667 11.8712 33.5097 12.181 33.6341 12.4961C34.8654 15.6234 36.6078 18.4726 38.419 21.2847C39.6583 23.2071 41.0087 25.0475 42.4519 26.8216C42.5737 26.9832 42.6664 27.1712 42.7961 27.3751Z" fill="#02C088"/>
<path d="M68.8517 5.71707C68.7829 8.62984 66.5109 10.6502 63.9397 10.69C61.8611 10.7244 59.0807 9.10648 59.0251 5.74091C58.9801 3.03468 61.2308 0.7839 63.9159 0.781252C66.6009 0.778604 68.8464 3.02409 68.8517 5.71707Z" fill="#02C088"/>
<path d="M77.5455 18.251C77.527 15.5157 79.701 13.2755 82.394 13.257C85.0896 13.2384 87.3219 15.4442 87.3536 18.1583C87.3828 20.8619 85.1743 23.1286 82.4867 23.1524C79.7831 23.1789 77.5641 20.9758 77.5455 18.251Z" fill="#02C088"/>
</svg>
