<svg width="66" height="91" viewBox="0 0 66 91" fill="none" xmlns="http://www.w3.org/2000/svg">
<path d="M50.4369 26.7871C50.7841 27.0919 51.0914 27.3417 51.3787 27.614C52.9551 29.1005 54.3665 30.7368 55.5032 32.5779C56.1502 33.6247 56.6973 34.7514 57.1495 35.898C58.566 39.4879 59.4079 43.2152 59.6502 47.0724C59.6652 47.3122 59.6902 47.5496 59.6927 47.7894C59.7077 48.9011 60.0799 49.8979 60.662 50.8322C61.951 52.8982 63.2376 54.9667 64.5242 57.0352C64.6716 57.2725 64.809 57.5173 64.9538 57.7547C66.4902 60.2728 64.1994 63.2382 61.8636 63.2607C61.1466 63.2682 60.4321 63.2931 59.6402 63.3131C59.5703 63.5954 59.4553 63.8477 59.4503 64.1051C59.4279 65.1443 59.4379 66.181 59.4379 67.2203C59.4379 69.059 59.4503 70.8951 59.4279 72.7338C59.4204 73.2884 59.3954 73.863 59.248 74.3901C58.6984 76.3711 57.0896 77.6177 55.0236 77.6652C53.4247 77.7027 51.8259 77.6752 50.227 77.6777C49.9073 77.6777 49.5875 77.6677 49.2677 77.6827C48.5033 77.7152 48.3484 77.8651 48.3159 78.592C48.3034 78.8718 48.3109 79.1516 48.3109 79.4314C48.3109 82.3068 48.3109 85.1847 48.3109 88.0602C48.3109 88.34 48.3234 88.6198 48.3059 88.8995C48.251 89.7989 47.8738 90.1686 46.9519 90.2336C46.6721 90.2536 46.3923 90.2436 46.1125 90.2436C38.2008 90.2436 30.2865 90.2436 22.3748 90.2436C22.015 90.2436 21.6528 90.2511 21.2981 90.2111C20.7185 90.1461 20.4437 89.8813 20.3363 89.3117C20.2938 89.0794 20.2963 88.8346 20.2888 88.5948C20.2213 86.1865 19.8716 83.8257 19.1471 81.5224C17.8531 77.4054 15.5922 73.9704 12.1097 71.3598C9.72396 69.5736 7.77038 67.3527 6.01166 64.9644C3.42854 61.442 1.53741 57.5848 0.638064 53.3004C-0.873339 46.0956 0.300808 39.318 4.15551 33.0451C8.08765 26.6448 13.6586 22.2429 20.731 19.7398C23.2317 18.8554 25.8373 18.4482 28.4753 18.2558C28.8626 18.2284 29.2548 18.2508 29.607 18.2508C29.7719 18.6131 29.5596 18.773 29.4147 18.9503C28.2005 20.4343 26.9764 21.9107 25.7723 23.4021C25.5 23.7394 25.2577 24.1141 25.0578 24.4988C23.9711 26.5973 25.6799 28.9206 27.7759 28.9831C29.4122 29.0305 31.0485 29.1205 32.6848 29.1954C33.077 29.2129 33.4717 29.2404 33.9064 29.2629C33.8939 30.1972 33.5616 30.9541 33.2943 31.7585C32.43 31.8535 31.6006 31.9259 30.7762 32.0383C25.0603 32.8128 20.3512 37.8691 19.974 43.7923C19.5543 50.37 24.171 55.7936 29.9018 57.1401C35.0556 58.3517 41.1262 56.0659 43.9266 50.7922C46.3873 46.1581 46.095 41.5789 43.1347 37.2071C42.9773 36.9772 42.8174 36.7474 42.665 36.5251C43.1697 35.6582 49.555 27.639 50.4369 26.7871Z" fill="#02C088"/>
<path d="M36.812 27.3441C36.4198 27.3191 36.0675 27.2917 35.7153 27.2742C33.402 27.1692 31.0862 27.0693 28.7728 26.9644C28.4531 26.9494 28.1308 26.9419 27.8185 26.8794C27.1116 26.7421 26.7693 26.06 27.0941 25.418C27.2365 25.1382 27.4438 24.8834 27.6462 24.6386C34.1439 16.8018 40.6467 8.96496 47.1495 1.13065C47.3793 0.853354 47.5992 0.566062 47.854 0.316244C48.2212 -0.0434951 48.6484 -0.0884623 49.0581 0.141371C49.4778 0.378698 49.6752 0.773412 49.5777 1.24807C49.5278 1.4804 49.4328 1.70274 49.3529 1.93007C48.1538 5.35758 46.9546 8.78509 45.753 12.2126C45.2384 13.6815 44.7213 15.1505 44.2141 16.6219C44.1417 16.8367 44.1217 17.0666 44.0692 17.3239C44.2866 17.3739 44.434 17.4288 44.5864 17.4388C47.0571 17.6112 49.5253 17.7761 51.996 17.9459C52.1958 17.9584 52.3982 17.9534 52.593 17.9884C53.3475 18.1233 53.6673 18.7578 53.3 19.4124C53.1451 19.6897 52.9378 19.9395 52.7379 20.1868C48.9282 24.9633 45.116 29.7374 41.3037 34.5114C39.1853 37.1645 37.0718 39.8176 34.9534 42.4681C34.7285 42.7479 34.5137 43.0377 34.2664 43.2975C33.9441 43.6373 33.4669 43.6947 33.0622 43.4799C32.7 43.29 32.4976 42.9128 32.5576 42.4781C32.5901 42.2433 32.67 42.0135 32.7375 41.7836C33.5544 38.9457 34.3738 36.1077 35.1932 33.2698C35.7153 31.4686 36.2424 29.6699 36.7595 27.8662C36.8045 27.7238 36.792 27.5615 36.812 27.3441Z" fill="#02C088"/>
<path d="M32.7325 34.1865C32.3228 35.563 31.938 36.8595 31.5408 38.206C31.1086 38.3834 30.669 38.5583 30.2368 38.7482C28.1433 39.6625 26.8642 41.2488 26.417 43.4822C25.8225 46.4551 27.4938 49.4554 30.3817 50.637C33.1846 51.7837 36.2499 50.662 37.8812 48.2787C39.1728 46.3951 39.3152 44.3491 38.6681 42.2081C38.6007 41.9833 38.5033 41.7685 38.3983 41.4912C39.2552 40.3895 40.0921 39.2828 40.9565 38.281C41.4062 38.2735 41.5186 38.5533 41.6635 38.7831C44.8886 43.8744 43.4597 50.9343 37.6314 54.0246C30.9787 57.5545 22.9995 53.2826 22.0677 45.9279C21.2708 39.63 25.9774 34.861 30.8288 34.2289C31.4159 34.1565 31.993 33.9192 32.7325 34.1865Z" fill="#02C088"/>
<path d="M30.6365 40.959C30.5665 41.4411 30.5316 41.7459 30.4766 42.0482C30.0344 44.4739 32.1229 46.395 34.4962 45.7405C35.0933 45.5756 35.5704 45.2284 35.9601 44.7537C36.2074 44.4514 36.4623 44.1567 36.767 43.7944C37.2392 44.5764 36.9894 45.2733 36.7895 45.9379C36.4423 47.1045 35.6753 47.9514 34.5836 48.486C32.5076 49.5078 29.9345 48.5859 28.9027 46.4575C28.3681 45.3558 28.3332 44.2266 28.7753 43.0924C29.1126 42.2231 29.6422 41.5086 30.6365 40.959Z" fill="#02C088"/>
</svg>
