<svg width="93" height="80" viewBox="0 0 93 80" fill="none" xmlns="http://www.w3.org/2000/svg">
<path d="M92.8287 39.8901C92.8287 42.0528 92.8287 44.2128 92.8287 46.3755C92.8287 46.6783 92.8395 46.9838 92.8043 47.2811C92.7341 47.8786 92.4421 48.3382 91.8744 48.5842C91.5175 48.7383 91.1607 48.8951 90.7957 49.0275C89.6198 49.4574 88.4438 49.8953 87.257 50.2927C85.5593 50.8577 84.2022 51.8715 83.1235 53.2854C82.0449 54.6992 81.169 56.2375 80.3606 57.8135C78.5142 61.4117 76.2623 64.7234 73.467 67.6566C68.8091 72.5389 63.2807 76.0263 56.8547 78.1106C52.6131 79.4866 48.2769 80.0408 43.8271 79.9705C35.7115 79.838 28.3583 77.3779 21.7242 72.7822C16.8581 69.4111 12.9571 65.1181 9.98881 59.9843C8.88312 58.0704 7.93424 56.0861 7.17459 54.0126C6.98805 53.507 6.67988 53.1448 6.25274 52.8123C3.31957 50.5333 1.30284 47.6055 0.486414 43.9776C-0.984228 37.4489 0.900022 31.9448 5.86614 27.5005C6.50144 26.9328 6.94479 26.338 7.25298 25.5459C9.41839 19.9851 12.6706 15.1433 16.9987 11.026C20.5455 7.65491 24.5682 4.99208 29.0882 3.12674C35.9089 0.312516 42.9782 -0.644484 50.3071 0.428761C54.7542 1.08028 58.9715 2.41305 62.9563 4.48654C68.3333 7.28455 72.848 11.1098 76.5219 15.93C77.9925 17.8602 79.2469 19.9283 80.3985 22.0586C81.1987 23.5427 82.0584 24.989 83.0613 26.3515C84.1427 27.8195 85.489 28.917 87.2192 29.5253C88.4816 29.9687 89.7387 30.4363 90.9985 30.8905C91.2012 30.9635 91.404 31.0392 91.6095 31.1095C92.4556 31.4015 92.8368 32.0097 92.8368 32.8883C92.8341 33.9264 92.8395 34.9645 92.8395 35.9999C92.8287 37.2975 92.8287 38.5925 92.8287 39.8901ZM89.709 33.9264C88.9034 33.6074 88.141 33.3209 87.3868 33.0073C86.3514 32.5774 85.2835 32.199 84.2995 31.6745C82.6288 30.7824 81.3122 29.4577 80.2877 27.8789C79.3009 26.3596 78.3683 24.7998 77.4951 23.2102C73.6454 16.1895 68.2414 10.7584 61.0639 7.16019C54.127 3.68364 46.7873 2.56984 39.134 3.70256C33.173 4.58386 27.7419 6.83849 22.8813 10.4151C16.9419 14.7864 12.6787 20.4392 10.1132 27.3491C9.75362 28.3196 9.24808 29.0495 8.40462 29.6875C4.81183 32.4017 3.01949 36.0729 3.17629 40.5659C3.31957 44.6886 5.12272 48.0516 8.42896 50.5387C9.20483 51.1227 9.67251 51.8147 9.97529 52.6933C10.5971 54.4965 11.4081 56.2158 12.3408 57.873C15.5199 63.5285 19.8589 68.0702 25.4035 71.4548C30.3994 74.5069 35.8278 76.2668 41.6455 76.7372C46.4737 77.1292 51.2154 76.6129 55.8518 75.1179C61.1666 73.404 65.8489 70.6465 69.9283 66.8483C73.0264 63.9637 75.5054 60.6115 77.5221 56.8971C78.3655 55.3426 79.2577 53.8071 80.2363 52.3338C81.734 50.0764 83.7615 48.4355 86.3378 47.519C86.8677 47.3298 87.4003 47.1514 87.922 46.9459C88.5195 46.7107 89.1061 46.4539 89.709 46.2025C89.709 42.115 89.709 38.1004 89.709 33.9264Z" fill="#02C088"/>
<path d="M42.657 27.4606C42.7868 27.5146 42.8382 27.52 42.8652 27.5498C44.2358 29.015 46.0119 29.48 47.9205 29.507C50.2617 29.5395 52.4595 28.9447 54.4546 27.6985C55.8496 26.8253 56.9039 25.6547 57.4419 24.0678C57.4824 23.9462 57.5527 23.8353 57.6392 23.6596C59.1125 22.9513 60.6102 22.1917 61.8484 21.0076C63.0919 19.8235 63.8786 18.3529 64.5572 16.8146C66.3792 17.7365 70.4451 22.5837 71.4535 25.0221C71.1399 25.2005 70.7912 25.1275 70.4695 25.1194C69.1151 25.0897 67.7931 25.2762 66.5117 25.7088C64.4734 26.3954 62.8567 27.6417 61.6997 29.4611C61.4699 29.8233 61.2753 30.218 61.1158 30.6154C60.84 31.3048 61.0374 32.0022 61.5645 32.3429C62.143 32.7132 62.9973 32.6457 63.4839 32.1536C63.6921 31.9428 63.857 31.6778 63.9976 31.4156C64.9951 29.5476 66.6198 28.6014 68.6528 28.2905C69.2908 28.1932 69.945 28.1634 70.5938 28.1743C71.4535 28.1878 72.3132 28.2716 73.1485 28.3229C76.8738 35.9789 76.0628 47.8657 72.1969 54.0159C71.4238 53.2292 70.9534 52.2533 70.3667 51.3612C69.772 50.461 69.2097 49.5337 68.5852 48.6524C67.9634 47.7738 67.2849 46.9385 66.6469 46.1085C66.6712 45.9274 66.6685 45.7949 66.7091 45.676C67.3579 43.7187 66.7712 42.0237 65.3465 40.7207C62.5323 38.1443 59.2018 37.1225 55.4008 37.874C54.5844 38.0362 53.8409 38.3876 53.1489 38.8364C51.589 39.8502 50.9916 41.556 51.5106 43.3619C51.8458 44.5297 52.5028 45.4786 53.4436 46.2112C56.4632 48.5632 59.8371 49.331 63.5731 48.401C63.7813 48.3496 63.9895 48.2874 64.1976 48.2334C64.2382 48.2226 64.2841 48.2307 64.4463 48.2307C64.622 48.4118 64.8735 48.6362 65.087 48.8957C66.463 50.5718 67.5606 52.4371 68.7312 54.2538C69.3151 55.1595 69.8964 56.0651 70.4722 56.9599C67.6093 61.9098 61.2563 67.0273 56.5984 68.406C56.5146 68.0276 56.4173 67.6518 56.3524 67.2733C55.9523 64.916 54.7898 62.9993 53.0245 61.4151C51.8891 60.3986 50.6158 59.5903 49.283 58.8631C48.4125 58.39 47.5366 57.9277 46.6418 57.4492C46.5418 56.9085 46.6662 56.4003 46.7418 55.8975C47.1176 53.332 47.5204 50.7692 47.8989 48.2063C47.9692 47.7387 48.0233 47.2575 48.0043 46.7871C47.9746 46.0085 47.4474 45.4786 46.7175 45.4002C46.0092 45.3245 45.2982 45.749 45.1333 46.4573C44.9117 47.4251 44.7603 48.4091 44.6062 49.3904C44.3304 51.1395 44.0817 52.894 43.806 54.6458C43.7465 55.0216 43.633 55.3892 43.5438 55.7623C41.9785 55.3676 39.5238 53.5536 38.4452 51.9992C38.5263 51.7991 38.6128 51.5612 38.7182 51.3315C39.3832 49.9095 39.5211 48.4415 39.2075 46.9033C38.6722 44.2864 37.5368 42.0102 35.5363 40.2043C34.8226 39.5609 34.0197 39.0581 33.1114 38.7364C30.4404 37.7902 27.9912 39.1122 27.3342 41.8804C27.0288 43.1618 27.0855 44.4595 27.4045 45.7355C28.075 48.4253 29.4429 50.6664 31.7056 52.3236C32.6356 53.0049 33.6656 53.4428 34.8118 53.5104C35.3768 53.5428 35.7877 53.7267 36.1446 54.1619C37.7342 56.1029 39.759 57.4979 41.9406 58.6712C43.806 59.6741 45.7308 60.5635 47.588 61.58C48.6072 62.1369 49.5966 62.7803 50.4996 63.5075C52.4109 65.043 53.257 67.0895 53.1678 69.5198C48.3314 71.5068 39.0534 71.7258 31.2947 68.0789C23.0575 64.2077 17.2668 56.9221 15.2339 50.096C19.927 43.397 19.9675 36.6575 15.2717 29.8639C21.0975 10.9321 45.0631 2.68133 61.7186 14.4789C61.1617 17.2661 59.4586 19.0909 56.9363 20.2047C56.7849 20.1452 56.6795 20.1344 56.6281 20.0803C55.2791 18.6124 53.5328 18.0366 51.6161 18.0122C48.9965 17.9771 46.5715 18.6908 44.4467 20.2669C43.3113 21.1103 42.4191 22.1592 42.019 23.5434C41.8731 24.0489 41.5865 24.3409 41.1296 24.5706C40.2862 25.0005 39.4725 25.4871 38.5911 25.9818C38.2667 25.8142 37.9207 25.652 37.5882 25.4628C35.0659 24.0219 32.3517 23.4947 29.4726 23.7596C28.9995 23.8029 28.521 23.8299 28.0533 23.911C27.7181 23.9705 27.3721 24.0597 27.072 24.2138C26.4178 24.5544 26.1556 25.1816 26.2961 25.8358C26.4259 26.4441 27.0801 27.101 27.7884 27.0361C28.3913 26.9821 28.9914 26.9172 29.5943 26.8577C31.711 26.6495 33.7277 26.974 35.6255 27.9607C35.7769 28.0391 35.9094 28.1499 36.0473 28.2527C36.077 28.277 36.0878 28.3284 36.1067 28.3662C35.4877 29.3989 34.8605 30.4262 34.2603 31.467C34.044 31.84 33.8575 32.2374 33.7251 32.6457C33.5466 33.1971 33.5331 33.7595 33.944 34.2407C34.6064 35.0138 35.8256 34.93 36.3906 34.0541C36.5744 33.7676 36.6853 33.4296 36.8312 33.1187C37.9477 30.7236 39.6563 28.8961 42.0217 27.6958C42.138 27.6363 42.2542 27.5795 42.3732 27.5309C42.4516 27.5011 42.5381 27.4876 42.657 27.4606Z" fill="#02C088"/>
<path d="M30.248 43.7398C30.3481 43.3587 30.4481 42.8072 30.64 42.2908C30.8077 41.8394 31.2213 41.6474 31.6944 41.7231C32.0296 41.7772 32.3837 41.8583 32.6757 42.0232C33.1218 42.2773 33.5651 42.5666 33.9301 42.9234C35.2277 44.1967 36.0495 45.7484 36.4388 47.5192C36.5875 48.1977 36.6145 48.8925 36.4226 49.5737C36.1414 50.5686 35.5115 50.9065 34.56 50.5551C34.2382 50.4361 33.9111 50.2928 33.6381 50.0874C31.5835 48.5465 30.5076 46.4648 30.248 43.7398Z" fill="#02C088"/>
<path d="M48.2797 26.4946C47.4065 26.5027 46.5577 26.3946 45.7899 25.9404C45.0465 25.4998 44.841 24.9402 45.2979 24.2157C45.6115 23.7183 46.0413 23.2533 46.5144 22.9072C48.2067 21.6718 50.118 21.0906 52.2212 21.3041C52.7646 21.3582 53.3242 21.5258 53.8189 21.7583C54.6921 22.1692 54.9057 22.8856 54.3731 23.6669C54.0406 24.1535 53.6081 24.6185 53.1215 24.9429C51.6644 25.9161 50.0531 26.4784 48.2797 26.4946Z" fill="#02C088"/>
<path d="M60.6203 45.6538C58.6144 45.6186 56.7788 45.0698 55.2514 43.7235C54.9053 43.4181 54.6188 43.0126 54.3998 42.6043C54.1024 42.0502 54.2268 41.6149 54.7539 41.2581C55.0675 41.0445 55.4352 40.8769 55.8029 40.7769C57.1762 40.4146 58.563 40.4633 59.8931 40.9201C60.7419 41.2121 61.5503 41.6501 62.3396 42.0934C62.9101 42.4124 63.3345 42.9233 63.6346 43.5154C63.9644 44.1642 63.84 44.6697 63.2345 45.0888C62.6857 45.4672 62.0504 45.6024 61.3962 45.6511C61.142 45.67 60.8798 45.6538 60.6203 45.6538Z" fill="#02C088"/>
<path d="M8.52892 40.021C8.52892 39.2019 8.51811 38.38 8.53163 37.5609C8.54244 36.9013 8.87225 36.3957 9.44267 36.0984C10.2888 35.6577 11.3377 36.147 11.6216 37.077C11.6594 37.1987 11.6919 37.3311 11.6919 37.4582C11.6946 39.2722 11.7027 41.0834 11.6703 42.8974C11.6648 43.1731 11.5108 43.484 11.3377 43.7138C10.9782 44.2004 10.4672 44.4329 9.85898 44.3032C9.1561 44.1518 8.74249 43.6733 8.56407 43.0001C8.49919 42.7568 8.52351 42.4865 8.52351 42.227C8.5181 41.4916 8.5208 40.759 8.5208 40.0237C8.52351 40.021 8.52622 40.021 8.52892 40.021Z" fill="#02C088"/>
</svg>
