<svg width="81" height="84" viewBox="0 0 81 84" fill="none" xmlns="http://www.w3.org/2000/svg">
<path d="M51.2018 2.34111C51.2018 4.1165 51.2018 5.79858 51.2018 7.43154C50.9071 7.7434 50.5756 7.68201 50.2711 7.68447C48.5424 7.69429 46.8136 7.69183 45.0849 7.70166C44.6601 7.70411 44.2377 7.73849 43.7613 7.76059C43.5992 8.43097 43.6803 9.05714 43.668 9.67104C43.6557 10.2604 43.6655 10.8497 43.6655 11.4391C43.6655 12.0677 43.6508 12.6963 43.6705 13.325C43.6876 13.9069 43.5771 14.4987 43.7908 15.093C44.606 15.3066 45.4336 15.1765 46.2513 15.1986C47.0371 15.2207 47.8229 15.1986 48.6086 15.2035C49.4288 15.2084 50.2465 15.2231 51.1256 15.2329C51.1772 15.5645 51.2484 15.8223 51.2509 16.0826C51.2607 17.8506 51.2533 19.6162 51.2607 21.3842C51.2607 21.7697 51.2926 22.1528 51.3098 22.5678C51.7714 22.7446 52.2036 22.6979 52.6235 22.7004C54.2344 22.7102 55.8453 22.7004 57.4561 22.7078C57.8417 22.7102 58.2272 22.7397 58.6545 22.7569C58.8951 23.4174 58.7699 24.0461 58.7895 24.6575C58.8092 25.2861 58.7944 25.9148 58.7944 26.5434C58.7944 27.1327 58.8042 27.7221 58.792 28.3114C58.7797 28.9302 58.8583 29.5589 58.7011 30.244C58.3794 30.2783 58.0798 30.3373 57.7778 30.3397C56.0491 30.3496 54.3203 30.3446 52.5916 30.3446C52.2036 30.3446 51.8181 30.3446 51.3687 30.3446C51.3245 30.6786 51.2582 30.9389 51.2582 31.1967C51.2484 32.9648 51.2558 34.7303 51.2509 36.4983C51.2509 36.8839 51.2288 37.2719 51.2189 37.5984C50.8089 37.9447 50.3988 37.8391 50.0182 37.8415C48.368 37.8538 46.7179 37.8465 45.0677 37.8465C44.6773 37.8465 44.2868 37.8465 43.9725 37.8465C43.6091 38.146 43.6803 38.4775 43.6778 38.782C43.6705 40.5894 43.6803 42.3942 43.6705 44.2015C43.668 44.5846 43.7613 44.9898 43.4642 45.4269C42.7054 45.4907 41.8853 45.449 41.07 45.4563C40.2842 45.4637 39.4984 45.449 38.7126 45.4588C37.8974 45.4686 37.0772 45.4097 36.2865 45.503C36.0802 46.5761 36.0827 51.8998 36.2865 52.8648C37.0772 53.0588 37.9023 52.9361 38.7175 52.9582C39.5033 52.9778 40.2891 52.9582 41.0749 52.9631C41.8926 52.968 42.7152 52.9385 43.474 52.9901C43.7613 53.4394 43.6705 53.8422 43.6729 54.2277C43.6827 55.8778 43.6754 57.5256 43.6778 59.1757C43.6778 59.5637 43.695 59.9517 43.7073 60.4084C44.0855 60.4452 44.3875 60.4968 44.6895 60.4993C46.4576 60.5066 48.2256 60.4968 49.9936 60.5091C50.3742 60.5115 50.7769 60.4133 51.2165 60.7154C51.2926 61.8719 51.2312 63.0825 51.2509 64.2907C51.2705 65.4964 51.2042 66.707 51.3024 67.9495C52.0759 68.119 52.7807 68.0256 53.4781 68.0428C54.146 68.0576 54.8139 68.0453 55.4818 68.0453C56.189 68.0453 56.8963 68.0404 57.6035 68.0477C58.2665 68.0551 58.9295 68.0109 59.6269 68.0993C59.6883 68.3277 59.7619 68.5069 59.784 68.6936C60.258 72.4383 61.0045 76.1266 61.9793 79.7732C62.1611 80.4558 62.382 81.1287 62.5539 81.8138C62.6964 82.381 62.5588 82.9065 62.1733 83.351C61.9106 83.653 61.5963 83.8912 61.1788 83.9231C60.7491 83.9575 60.3169 83.9968 59.8872 83.9968C51.0471 84.0017 42.2069 84.0017 33.3693 83.9968C32.9764 83.9968 32.5835 83.9821 32.193 83.9452C31.449 83.8716 30.9726 83.4443 30.7442 82.7469C30.646 82.4498 30.5871 82.1404 30.5281 81.8334C30.0837 79.5202 29.6196 77.212 28.9025 74.9651C28.6521 74.1818 28.3427 73.4157 28.0431 72.6495C27.4808 71.2081 26.3782 70.4051 24.9024 70.0834C23.5911 69.7986 22.2602 69.7028 20.9194 69.8158C18.8052 69.9901 16.6909 70.162 14.5791 70.3437C13.5109 70.4346 12.4526 70.3363 11.4188 70.108C9.21611 69.6218 8.0104 68.1165 7.507 66.0096C7.27127 65.02 7.14112 64.0009 7.01343 62.9917C6.83663 61.5896 6.7507 60.1751 6.54198 58.7804C6.38482 57.7367 6.1417 56.7005 5.8544 55.6839C5.4394 54.2056 4.59713 52.9876 3.36443 52.0594C2.83157 51.6567 2.26187 51.3055 1.73637 50.8955C1.33611 50.5861 0.923583 50.2644 0.611724 49.8715C-0.151964 48.904 -0.215823 47.6934 0.50612 46.6989C1.17158 45.7805 1.9451 44.9382 2.68914 44.0787C3.77451 42.8289 4.76413 41.5176 5.46397 40.0049C6.09751 38.6347 6.51496 37.2056 6.53706 35.6954C6.55425 34.4406 6.50268 33.1833 6.44375 31.9285C6.39463 30.8701 6.28414 29.8142 6.20802 28.7583C5.70217 21.5708 8.02759 15.3975 12.9388 10.1818C16.5141 6.38301 20.8949 3.84393 25.8011 2.15939C28.7528 1.14769 31.7952 0.563261 34.8917 0.315246C37.3179 0.121255 39.7538 0.160544 42.1873 0.420837C44.5348 0.673762 46.8529 1.05929 49.1366 1.65354C49.8094 1.82789 50.4823 2.02434 51.2018 2.34111ZM33.0599 62.4981C32.9174 63.2299 32.8241 68.0797 32.9371 69.3124C32.9494 69.4548 33.0378 69.5923 33.1163 69.7961C34.3073 69.7961 35.4811 69.8133 36.6549 69.7912C37.8581 69.7691 39.0662 69.8845 40.2425 69.7225C40.4463 68.6911 40.4487 63.4853 40.2572 62.5006C40.1614 62.4613 40.0583 62.3827 39.9527 62.3827C37.7549 62.3753 35.5597 62.3753 33.3619 62.3827C33.2588 62.3827 33.1532 62.4613 33.0599 62.4981ZM43.9111 18.1379C43.0737 18.1379 42.2953 18.1379 41.5169 18.1379C40.6943 18.1379 39.8717 18.1232 39.0491 18.1428C38.278 18.1625 37.4971 18.0471 36.7064 18.2435C36.6745 18.4817 36.6278 18.6708 36.6278 18.8599C36.6278 20.9741 36.6352 23.0884 36.6475 25.2026C36.6475 25.3082 36.7261 25.4114 36.7727 25.5243C36.8906 25.5612 37.0011 25.6225 37.1091 25.6225C39.2627 25.6275 41.4162 25.6299 43.5722 25.6201C43.7122 25.6201 43.8497 25.5219 43.9651 25.4801C44.11 24.2842 44.0904 19.184 43.9111 18.1379ZM38.3689 28.4366C38.1945 28.3802 38.0545 28.304 37.9097 28.2942C36.4903 28.1935 31.864 28.2746 31.0389 28.4195C30.9235 29.0113 30.9849 29.6325 30.9751 30.2513C30.9653 30.8407 30.9726 31.4276 30.9726 32.0169C30.9726 32.6455 30.9603 33.2717 30.9751 33.9003C30.9898 34.5142 30.9014 35.138 31.0414 35.7003C31.1985 35.7568 31.2697 35.8059 31.341 35.8059C33.5387 35.8132 35.7365 35.8181 37.9342 35.8132C38.0742 35.8132 38.2166 35.7248 38.3664 35.6733C38.3689 33.2447 38.3689 30.8579 38.3689 28.4366ZM21.661 22.72C22.5082 22.7274 23.2891 22.7372 24.07 22.7421C24.895 22.7446 25.7201 22.7642 26.5427 22.7372C27.3138 22.7102 28.102 22.8747 28.8559 22.6022C28.8903 22.4548 28.9394 22.3419 28.9394 22.2265C28.9443 20.068 28.9443 17.9095 28.9369 15.7511C28.9369 15.6111 28.8485 15.4711 28.7822 15.2747C27.9719 15.2747 27.191 15.2747 26.4077 15.2747C25.5826 15.2747 24.7575 15.26 23.9349 15.2796C23.1638 15.2968 22.383 15.1912 21.6365 15.3606C21.4769 16.5025 21.4867 21.6592 21.661 22.72Z" fill="#02C088"/>
<path d="M62.35 46.2709C64.7221 46.2709 66.9959 46.2684 69.2698 46.2758C69.4171 46.2758 69.5645 46.3372 69.7585 46.3789C69.9451 47.01 69.842 47.6387 69.8591 48.2526C69.8763 48.8787 69.8616 49.5074 69.8616 50.136C69.8616 50.7253 69.8739 51.3122 69.8591 51.9016C69.842 52.5179 69.9402 53.1465 69.7486 53.8292C68.9162 53.9692 68.096 53.8857 67.2857 53.9004C66.4606 53.9151 65.638 53.9127 64.8129 53.9004C64.0001 53.8881 63.1799 53.9618 62.3892 53.8439C62.318 53.6573 62.2394 53.5517 62.2394 53.4461C62.2296 51.2484 62.2247 49.0531 62.2272 46.8553C62.2296 46.708 62.2886 46.5607 62.35 46.2709Z" fill="#02C088"/>
<path d="M62.9838 36.5672C62.9396 36.2504 62.8979 36.1006 62.8979 35.9484C62.8954 33.7899 62.8979 31.6339 62.9052 29.4754C62.9052 29.3649 62.9642 29.2544 62.9838 29.1832C63.0403 29.1194 63.0599 29.0825 63.0919 29.0629C63.1238 29.0433 63.1656 29.031 63.2024 29.031C65.3977 29.0162 67.5954 29.004 69.7907 28.9941C69.9847 28.9941 70.1763 29.0285 70.4095 29.0506C70.4562 29.2471 70.525 29.4312 70.5372 29.6179C70.6404 31.3417 70.5618 35.6316 70.412 36.4788C69.6311 36.7071 68.8085 36.5623 68.0006 36.5868C67.178 36.6114 66.3529 36.5966 65.5278 36.5917C64.7101 36.5868 63.8899 36.577 62.9838 36.5672Z" fill="#02C088"/>
<path d="M75.0432 61.0567C75.2004 62.201 75.193 67.4584 75.0334 68.4579C74.2501 68.6592 73.4275 68.5315 72.6196 68.5536C71.797 68.5757 70.9719 68.5659 70.1468 68.5561C69.334 68.5438 68.5163 68.6126 67.7305 68.5045C67.5439 67.5689 67.5021 62.6234 67.6617 61.1009C67.814 61.0592 67.9908 60.9683 68.17 60.9683C70.3285 60.9609 72.487 60.9634 74.643 60.9708C74.7559 60.9683 74.8689 61.0174 75.0432 61.0567Z" fill="#02C088"/>
<path d="M61.3849 36.3417C61.4217 36.5553 61.4708 36.7051 61.4708 36.8549C61.4733 39.0134 61.4708 41.1743 61.461 43.3327C61.461 43.4432 61.3996 43.5513 61.3505 43.7232C60.5647 43.954 59.7396 43.8091 58.9293 43.8337C58.1042 43.8582 57.2791 43.8484 56.4541 43.8361C55.6388 43.8239 54.8186 43.9 53.9567 43.7649C53.7455 42.5052 53.8831 41.2921 53.8585 40.0889C53.8339 38.8758 53.8536 37.6628 53.8536 36.4153C54.1016 36.3417 54.2784 36.2459 54.4577 36.2459C56.6186 36.2361 58.7771 36.241 60.938 36.2459C61.0534 36.2459 61.1663 36.2926 61.3849 36.3417Z" fill="#02C088"/>
<path d="M45.922 45.4868C46.1553 45.4622 46.3444 45.4254 46.5334 45.4279C48.7238 45.4352 50.9167 45.4499 53.1071 45.4671C53.1734 45.4671 53.2396 45.5359 53.3035 45.5703C53.3354 45.639 53.3968 45.7053 53.3993 45.7741C53.414 47.8466 53.4238 49.9216 53.4287 51.9966C53.4287 52.2667 53.4017 52.5392 53.3821 52.8683C53.1488 52.9149 52.9303 52.9935 52.7117 52.996C50.6367 53.0058 48.5617 53.0009 46.4868 52.9984C46.3345 52.9984 46.1823 52.9714 45.9637 52.9518C45.9146 52.7725 45.8238 52.5957 45.8213 52.4189C45.8164 50.2285 45.8213 48.0357 45.8287 45.8453C45.8311 45.7667 45.868 45.6931 45.922 45.4868Z" fill="#02C088"/>
<path d="M62.5319 63.6914C61.5988 63.8706 56.6655 63.9099 55.1921 63.7601C55.143 63.6791 55.035 63.5809 55.035 63.4851C55.0252 61.14 55.0276 58.7949 55.0276 56.3933C55.2634 56.332 55.477 56.2288 55.6931 56.2264C57.768 56.2141 59.8455 56.2165 61.9205 56.2239C62.1046 56.2239 62.2912 56.2902 62.4533 56.3221C62.6375 57.2111 62.6866 62.051 62.5319 63.6914Z" fill="#02C088"/>
<path d="M62.5761 20.2516C62.3772 19.1637 62.3649 13.9235 62.5417 12.7571C63.7523 12.5165 65.0022 12.6736 66.2399 12.6491C67.448 12.6245 68.6586 12.6221 69.9232 12.6663C70.127 13.565 70.019 14.3852 70.0362 15.1955C70.0534 16.0206 70.0583 16.8457 70.0362 17.6683C70.0141 18.4811 70.1491 19.3062 69.9109 20.1681C68.6856 20.3449 67.475 20.2246 66.2693 20.2467C65.0538 20.2688 63.8407 20.2516 62.5761 20.2516Z" fill="#02C088"/>
<path d="M73.4152 27.5627C73.4152 25.1685 73.4127 22.9364 73.4176 20.7067C73.4176 20.5201 73.4643 20.3334 73.4888 20.1689C74.3925 19.9848 79.1686 19.9356 80.8556 20.0854C80.8998 20.2058 80.998 20.3433 80.998 20.4832C81.0029 22.7178 80.998 24.9524 80.9906 27.187C80.9906 27.2582 80.944 27.3319 80.89 27.4841C80.1312 27.6978 79.3086 27.5578 78.5031 27.5823C77.6805 27.6069 76.8555 27.5897 76.0328 27.5873C75.2151 27.5823 74.3999 27.5725 73.4152 27.5627Z" fill="#02C088"/>
<path d="M60.4617 14.7842C57.9669 14.7842 55.58 14.7842 53.1539 14.7842C53.095 14.6319 52.9943 14.4944 52.9918 14.3544C52.9845 12.1174 52.9918 9.88281 52.9992 7.64577C52.9992 7.57456 53.0483 7.50334 53.0974 7.36583C53.1981 7.33391 53.3405 7.25042 53.4805 7.24796C55.6782 7.23814 57.876 7.2406 60.0738 7.24551C60.1843 7.24551 60.2947 7.29953 60.4912 7.34864C60.6754 8.13198 60.5624 8.95214 60.5821 9.76003C60.6017 10.5827 60.6017 11.4077 60.5821 12.2328C60.5624 13.0481 60.6803 13.8707 60.4617 14.7842Z" fill="#02C088"/>
</svg>
