<svg width="87" height="81" viewBox="0 0 87 81" fill="none" xmlns="http://www.w3.org/2000/svg">
<path d="M9.42395 13.9876C9.36508 12.7786 9.793 11.7846 10.2843 10.8223C10.9568 9.50687 11.9507 8.47895 13.1688 7.63669C15.0141 6.35971 18.2405 5.77782 20.0201 6.67669C19.8209 7.24272 19.6035 7.81102 19.4201 8.39065C19.3115 8.73253 19.2073 9.088 19.1847 9.44347C19.1394 10.1431 19.59 10.7454 20.2216 10.9265C20.9371 11.1303 21.639 10.8563 21.9786 10.2042C22.1281 9.91894 22.2141 9.5997 22.3137 9.28951C23.5431 5.48801 25.9862 2.73255 29.6427 1.16576C34.0578 -0.727061 38.3325 -0.296874 42.3718 2.325C42.4601 2.38161 42.5303 2.46765 42.6571 2.58312C42.6072 2.76425 42.562 2.96802 42.4963 3.165C42.2133 4.02991 42.0231 4.91066 41.9982 5.82311C41.9914 6.04046 41.9823 6.26009 42.0118 6.47292C42.1091 7.17707 42.6118 7.66386 43.2978 7.73631C44.0427 7.81555 44.6721 7.43291 44.8918 6.71744C44.9846 6.41178 45.0072 6.07896 45.0253 5.75518C45.1521 3.525 46.7778 0.907651 49.7846 0.205766C53.6902 -0.70442 57.0932 2.0601 57.4555 5.63065C57.4872 5.95443 57.4962 6.28499 57.5732 6.59744C57.7679 7.39442 58.3793 7.81555 59.1785 7.73631C59.9053 7.66386 60.4351 7.13857 60.4894 6.38009C60.5257 5.87745 60.4962 5.37254 60.4962 4.80651C60.7091 4.76575 60.9106 4.68198 61.1076 4.69556C67.3974 5.08047 72.1815 7.96725 75.426 13.365C76.3634 14.9272 76.986 16.6276 77.3234 18.4231C77.3437 18.525 77.3256 18.6359 77.3256 18.7514C77.0811 19.0661 76.6894 19.057 76.3566 19.1657C75.3852 19.4827 74.4818 19.931 73.6668 20.5468C73.2615 20.8525 73.0668 21.2578 73.0622 21.7627C73.0509 22.8993 74.1513 23.6215 75.1792 23.1393C75.4713 23.0012 75.7317 22.7951 76.0124 22.6298C78.8607 20.9634 82.4516 21.7219 84.3218 24.3868C86.3754 27.3121 85.5852 31.297 82.5626 33.2396C82.3203 33.3959 82.0532 33.5181 81.8086 33.6721C81.0049 34.177 80.7513 34.9672 81.1497 35.7075C81.5528 36.4592 82.343 36.74 83.1988 36.3302C83.8124 36.0358 84.3671 35.617 84.9399 35.2366C85.2048 35.0623 85.4448 34.8494 85.6962 34.657C86.8079 36.0358 87.152 39.149 86.9414 40.8336C86.5475 43.9898 85.1754 46.6275 82.6984 48.6471C80.2894 50.6101 77.5045 51.4954 74.4139 51.2645C72.0185 51.0856 69.8675 50.2275 67.9883 48.6313C68.2351 48.2486 68.4366 47.952 68.6245 47.6464C70.0192 45.3573 70.2547 42.9664 69.2132 40.4826C69.0773 40.1588 68.8758 39.8328 68.6268 39.5905C68.1309 39.106 67.506 39.0743 66.9332 39.423C66.3377 39.7853 66.0592 40.4283 66.2381 41.0962C66.3309 41.4449 66.4826 41.7777 66.5868 42.1241C67.1823 44.1075 66.5053 46.1226 64.8321 47.3135C62.5181 48.9596 59.6495 48.1445 58.291 46.2018C58.1053 45.9347 57.9559 45.6403 57.7566 45.3845C57.2744 44.7664 56.4683 44.6102 55.8163 44.9883C55.1461 45.3754 54.8427 46.1385 55.1823 46.8562C55.4585 47.4381 55.814 48.0018 56.2261 48.4977C58.2932 50.995 61.7913 51.8962 64.7891 50.7369C64.9566 50.6713 65.131 50.6215 65.3551 50.5467C65.5362 50.6758 65.7468 50.8071 65.9392 50.9611C68.3392 52.9128 71.0879 54.0335 74.1603 54.3165C76.5128 54.5339 78.7747 54.0901 80.955 53.2026C81.2154 53.0962 81.4781 52.9897 81.7271 52.8901C81.9354 53.112 81.7814 53.2682 81.7045 53.4086C80.3664 55.8312 78.5369 57.8078 76.2275 59.3316C74.3958 60.5407 72.4034 61.3784 70.2434 61.795C69.9604 61.8493 69.6728 61.9037 69.3989 61.9965C68.6585 62.2433 68.2215 62.9724 68.3641 63.6901C68.5158 64.4599 69.1113 64.9807 69.9241 64.8969C70.7121 64.8154 71.4864 64.6071 72.263 64.435C72.6819 64.3422 73.0917 64.2086 73.4902 64.0999C74.0471 64.5142 74.3868 65.0282 74.74 65.5263C75.8381 67.0727 76.6351 68.7754 77.2486 70.564C78.1588 73.2108 78.7271 75.9346 78.9762 78.7217C79.035 79.3648 79.2298 80.001 79.1143 80.6938C78.3309 80.9746 77.5339 80.798 76.7528 80.8251C75.9988 80.8523 75.2426 80.8183 74.4547 80.8115C74.3505 80.5285 74.2464 80.3021 74.1807 80.0667C73.0011 75.724 70.2524 72.7263 66.2268 70.8561C65.1468 70.3535 64.0057 69.9867 62.8872 69.5701C61.3589 68.9995 59.8487 68.395 58.4517 67.5437C57.331 66.8599 56.294 66.072 55.5785 64.9422C54.7838 63.6856 54.4057 62.309 54.4215 60.8237C54.4215 60.758 54.4736 60.6946 54.528 60.5678C55.1257 60.4727 55.7642 60.389 56.3959 60.2712C57.2495 60.1127 58.1008 59.9407 58.9476 59.7505C59.2623 59.6803 59.577 59.5694 59.8668 59.4267C60.5257 59.1052 60.8359 58.3807 60.6411 57.6946C60.4328 56.9565 59.74 56.4811 58.9861 56.5943C58.6306 56.6486 58.2842 56.7663 57.9332 56.8524C53.9302 57.8531 49.9725 57.749 46.0691 56.3588C45.8993 56.2977 45.7318 56.2229 45.5574 56.1754C44.8759 55.9897 44.2646 56.1075 43.7552 56.6192C43.4744 56.9022 43.2072 57.1988 42.9152 57.4682C36.5348 63.3595 26.6088 60.5792 23.9258 52.7588C22.8186 49.5369 23.0994 46.4169 24.6616 43.4034C24.7613 43.2109 24.8948 43.032 24.9786 42.8351C25.3092 42.0539 25.0465 41.2411 24.3537 40.8585C23.6541 40.4713 22.8005 40.6411 22.3681 41.3792C21.8948 42.1853 21.5281 43.0569 21.1364 43.9105C20.9733 44.266 20.8647 44.6464 20.7447 44.9769C18.1115 45.3505 15.8519 43.589 15.5417 40.9943C15.5122 40.743 15.5258 40.4871 15.4918 40.2358C15.3809 39.4253 14.8171 38.9158 14.0337 38.9068C13.2458 38.8955 12.63 39.3822 12.5054 40.1679C12.4556 40.4849 12.4715 40.82 12.5032 41.1415C12.8677 44.789 15.6866 47.6486 19.3341 48.0834C19.5854 48.1128 19.8345 48.1445 20.1198 48.1784C20.3847 48.8418 20.2216 49.5369 20.2873 50.2049C20.353 50.8796 20.593 51.543 20.482 52.2245C15.3175 53.9113 7.87074 52.2811 3.3968 46.5279C-1.07942 40.7702 -0.66055 33.1672 1.93869 29.0215C2.19906 29.2842 2.45491 29.5332 2.69718 29.7913C3.22019 30.3483 3.8066 30.8351 4.46094 31.2268C5.16056 31.6457 5.83981 31.58 6.35603 31.0796C6.98094 30.4774 7.01037 29.5627 6.39905 28.9491C6.17037 28.7204 5.88736 28.5483 5.62698 28.3513C2.57265 26.0487 2.21944 21.74 4.85943 18.9914C7.2481 16.5053 11.3122 16.4827 13.7326 18.9438C13.9613 19.1748 14.156 19.4397 14.3824 19.6751C14.9643 20.2774 15.827 20.3634 16.4496 19.8948C17.113 19.3944 17.2466 18.5068 16.7168 17.7665C15.9469 16.6933 14.9598 15.8533 13.8028 15.208C12.7092 14.6012 11.5409 14.2525 10.3024 14.1167C10.0421 14.085 9.793 14.0419 9.42395 13.9876ZM35.5839 35.7121C35.7967 36.2192 35.7401 36.62 35.7401 37.0094C35.7446 40.9536 35.7424 44.8977 35.7446 48.8418C35.7446 49.2018 35.731 49.5709 35.7922 49.9241C35.8986 50.5332 36.2133 51.0041 36.8586 51.1581C37.4676 51.303 38.0088 51.1807 38.4231 50.6781C38.5839 50.4833 38.7333 50.2796 38.8805 50.0735C40.857 47.3067 42.8336 44.54 44.8102 41.7732C47.7129 37.7136 50.6155 33.654 53.5159 29.5898C53.7468 29.2661 53.9981 28.9468 54.1634 28.5913C54.5778 27.7015 54.0185 26.6917 53.0472 26.5445C52.7642 26.5015 52.4699 26.5106 52.18 26.5083C50.697 26.5061 49.2117 26.5129 47.7287 26.5015C47.3755 26.4993 47.0019 26.5876 46.6623 26.3544C46.4608 25.9898 46.5469 25.5846 46.5469 25.1951C46.5401 21.2148 46.5446 17.2344 46.5401 13.2563C46.5401 12.8963 46.5536 12.5272 46.4857 12.1763C46.377 11.6012 46.0261 11.2072 45.4465 11.0374C44.8691 10.8676 44.371 11.0238 43.9499 11.4246C43.7687 11.5967 43.6306 11.8163 43.4835 12.0223C42.7023 13.1091 41.9257 14.1982 41.1469 15.2872C37.0239 21.054 32.9008 26.8208 28.7778 32.5898C28.5877 32.8547 28.3816 33.1106 28.2231 33.3936C27.6345 34.4374 28.2435 35.583 29.4435 35.6985C29.6948 35.7234 29.9507 35.7121 30.202 35.7121C31.3612 35.7143 32.5182 35.7121 33.6775 35.7121C34.2956 35.7121 34.9069 35.7121 35.5839 35.7121Z" fill="#02C088"/>
</svg>
