<svg width="88" height="87" viewBox="0 0 88 87" fill="none" xmlns="http://www.w3.org/2000/svg">
<path d="M68.8632 0C68.9799 0.0702325 69.0875 0.181245 69.2135 0.206167C70.3216 0.437254 71.4343 0.650217 72.5424 0.87904C72.7508 0.922085 72.9477 1.01044 73.1973 1.092C73.108 2.26783 72.689 3.3621 72.5928 4.56738C73.6666 5.66165 74.9396 6.57694 76.0615 7.67574C75.3471 9.54483 74.6168 11.3437 73.8566 13.1154C72.9706 12.9636 70.0881 11.8398 69.099 11.2712C69.1516 10.5258 69.6782 9.89826 69.7973 9.08718C68.8242 8.23533 67.8443 7.37895 66.8369 6.49764C67.0041 5.64806 67.1529 4.83472 67.3223 4.02591C67.6062 2.68243 67.9061 1.34348 68.1992 0.00226557C68.4236 0 68.6434 0 68.8632 0Z" fill="#02C088"/>
<path d="M43.9666 16.3826C44.1315 15.8932 44.2505 15.5217 44.381 15.1546C45.5602 11.8832 47.8611 9.85095 51.3046 9.16449C54.8053 8.46669 58.4983 10.0707 60.433 13.0545C60.971 13.8837 61.3625 14.7763 61.6167 15.7301C61.6716 15.934 61.7449 16.1311 61.825 16.3803C62.2532 16.3962 62.6515 16.4143 63.0476 16.4211C64.3298 16.4415 65.6119 16.4256 66.8918 16.4777C71.3861 16.6544 75.6515 19.9055 76.7665 24.8127C76.8055 24.9849 76.8512 25.1571 76.9039 25.3791C77.3092 25.4562 77.6938 25.5513 78.083 25.6034C82.7834 26.2378 87.058 30.1391 87.8433 35.3227C88.6904 40.9187 85.2241 46.5622 79.4178 48.1594C78.6462 48.3724 77.8357 48.4426 77.0436 48.5785C76.8306 48.6148 76.62 48.651 76.3727 48.6941C76.2972 49.2491 76.2445 49.7883 76.1483 50.3162C75.3218 54.8881 72.666 57.9534 68.2815 59.5507C67.1093 59.9789 65.8592 60.1397 64.6114 60.1578C62.4867 60.1896 60.362 60.1692 58.2373 60.1669C58.1297 60.1669 58.0221 60.1375 57.9259 60.1216C57.7588 59.9313 57.8618 59.7818 57.974 59.6345C58.8463 58.504 59.5309 57.2692 60.0323 55.9371C60.5452 54.5687 60.7993 53.1459 60.8886 51.6914C60.8977 51.5532 60.852 51.4128 60.8359 51.2859C60.0689 51.0865 57.5779 51.0435 55.9638 51.1998C55.728 51.5147 55.7692 51.9293 55.7211 52.3077C55.5448 53.6625 55.0846 54.9108 54.3153 56.039C52.8065 58.257 50.7322 59.6254 48.0374 60.0015C47.2796 60.108 46.5057 60.1578 45.741 60.1624C42.0778 60.1782 38.4145 60.1692 34.7536 60.1714C34.3598 60.1714 33.9545 60.1216 33.5126 60.2847C33.4004 63.4882 32.2442 66.225 29.7624 68.3162C27.8872 69.8952 25.7007 70.729 23.2166 70.7403C21.8108 70.7471 20.4485 70.5636 19.1389 70.0221C17.8728 69.4988 16.7395 68.7896 15.7573 67.8449C14.7476 66.873 13.976 65.7447 13.4105 64.4647C12.861 63.2232 12.6778 61.9046 12.5267 60.552C12.284 60.5067 12.1123 60.4637 11.936 60.4456C8.61621 60.1193 5.77488 57.3667 5.80007 53.5424C5.81151 51.7662 5.80235 49.9922 5.80007 48.216C5.80007 47.8921 5.80007 47.5681 5.80007 47.2373C1.08133 44.0451 -0.832722 39.736 0.332652 34.1763C1.94678 28.9837 5.55738 26.1472 11.0019 25.395C11.0935 25.0778 11.1942 24.738 11.2927 24.3959C12.2909 20.9273 14.4751 18.5077 17.8476 17.1415C19.1893 16.5978 20.6065 16.437 22.042 16.4234C23.0311 16.412 24.0202 16.4234 25.0093 16.4188C25.371 16.4166 25.7351 16.4007 26.1197 16.3916C26.2456 15.9997 26.3647 15.6621 26.4654 15.3178C27.3309 12.3521 30.0554 9.34347 34.4605 9.02402C38.1879 8.75442 41.8282 10.8659 43.3393 14.5407C43.566 15.0957 43.7285 15.678 43.9666 16.3826ZM46.9408 46.0071C48.1611 46.1952 51.1581 46.1589 51.9663 45.9392C51.9365 45.5291 51.9411 45.0964 51.8701 44.675C50.9863 39.5004 46.5813 36.5144 42.5792 36.4713C41.8832 36.4646 41.1894 36.4532 40.4934 36.4464C39.7974 36.4396 39.1014 36.4668 38.4076 36.4306C36.1158 36.315 34.4032 34.9036 33.8538 32.706C33.7828 32.4273 33.7187 32.1464 33.6363 31.802C32.8258 31.7318 32.0244 31.7476 31.2254 31.7703C30.4011 31.793 29.5586 31.6344 28.7 31.913C28.7 32.16 28.6794 32.3752 28.7023 32.5859C29.0068 35.3454 30.2203 37.6245 32.4228 39.3577C34.2338 40.7827 36.3287 41.4488 38.632 41.476C39.8043 41.4896 40.9765 41.5122 42.1465 41.4737C44.2299 41.4058 46.3615 42.9962 46.7919 45.196C46.8354 45.4475 46.8812 45.6967 46.9408 46.0071ZM56.5362 25.3769C55.4372 24.2894 54.4046 23.2654 53.3675 22.2459C53.2667 22.1484 53.1431 22.0737 53.0057 21.9717C52.1472 22.5562 51.5999 23.4557 50.6681 24.0221C50.288 23.6618 49.924 23.3107 49.5554 22.9663C49.1936 22.6265 48.8914 22.2141 48.461 21.9763C47.1468 23.0615 45.4251 24.8218 44.9992 25.5105C45.6014 26.3012 46.4851 26.8608 47.0506 27.7512C46.6843 28.1159 46.35 28.4467 46.0181 28.7798C45.6632 29.14 45.3106 29.5025 44.9649 29.8582C45.5167 30.6217 47.7375 32.8193 48.4953 33.3517C48.9372 33.1138 49.228 32.6833 49.6035 32.3526C49.9813 32.0218 50.2743 31.5936 50.7917 31.3127C51.1581 31.6706 51.5107 32.0331 51.8816 32.3752C52.2456 32.7105 52.5387 33.1364 52.9828 33.3585C54.0108 32.5768 56.0371 30.5265 56.4721 29.8264C55.7944 29.14 55.1075 28.4445 54.3863 27.7127C54.6954 27.2618 55.0938 26.9424 55.4395 26.5776C55.7875 26.2151 56.195 25.9048 56.5362 25.3769ZM30.1974 46.6573C29.5449 46.0071 28.9954 45.4271 28.4115 44.8857C27.8094 44.3283 27.3332 43.626 26.5364 43.2182C25.8083 43.916 25.1077 44.5911 24.3888 45.2799C23.4982 44.6659 22.9418 43.7755 22.1084 43.2363C21.2201 43.8775 19.0656 46.032 18.6215 46.714C19.2099 47.5182 20.0936 48.0778 20.6523 48.9206C20.0272 49.7997 19.1206 50.3389 18.5848 51.1839C20.3249 53.1029 21.4971 54.2039 22.2046 54.571C22.5297 54.2538 22.8663 53.923 23.2051 53.599C23.5692 53.2501 23.8851 52.8423 24.3568 52.5773C25.2108 53.1414 25.7625 54.0363 26.5914 54.5868C27.4728 53.9389 29.6135 51.8002 30.0897 51.0978C29.5013 50.2913 28.613 49.7317 28.0223 48.8436C28.7389 48.1209 29.4258 47.4299 30.1974 46.6573Z" fill="#02C088"/>
<path d="M26.0854 75.5426C31.8894 74.0949 35.729 70.6898 37.7873 65.2841C37.9659 65.2524 38.1422 65.198 38.3162 65.1958C42.3068 65.1913 46.2975 65.1913 50.2859 65.1958C50.4278 65.1958 50.572 65.2275 50.7025 65.2411C51.3139 66.7477 50.7186 69.2851 49.3678 70.9209C48.0146 72.5566 46.2219 73.345 44.0972 73.5059C43.9141 74.428 44.0285 75.3319 44.0079 76.2291C43.9873 77.0968 44.0034 77.9668 44.0034 78.8368C44.0034 79.743 44.0034 80.6469 44.0034 81.5532C44.0034 82.4231 44.0079 83.2909 44.0011 84.1608C43.9942 85.058 44.0308 85.9574 43.9759 86.7685C43.8774 86.8795 43.8591 86.9135 43.8294 86.9316C43.7996 86.9497 43.7607 86.9611 43.724 86.9611C40.5393 86.9747 37.3569 86.9883 34.1721 86.9996C33.879 86.9996 33.586 86.9883 33.2952 86.9724C33.2265 86.9679 33.1624 86.9203 33.0434 86.8705C33.0205 86.6915 32.9884 86.483 32.9701 86.2746C32.7228 83.4562 31.5987 81.0502 29.5541 79.0633C28.5627 78.1004 27.5874 77.1172 26.6075 76.1407C26.4632 75.9912 26.3327 75.8258 26.0854 75.5426Z" fill="#02C088"/>
<path d="M77.2266 14.9026C77.6776 14.6216 78.1081 14.3543 78.5385 14.0824C78.9369 13.8309 79.3329 13.5772 79.7588 13.3053C79.61 11.7036 79.0605 10.197 78.8476 8.55218C80.6792 6.9255 82.5223 5.2875 84.4157 3.60645C85.169 4.1026 85.6315 4.80493 86.1947 5.40077C86.7671 6.00568 87.3143 6.63551 87.8958 7.28346C87.4562 7.96766 86.8014 8.37999 86.2565 8.89654C85.7299 9.39723 85.1781 9.86847 84.6218 10.3669C84.6309 11.2935 84.9698 12.1454 85.1278 13.0289C85.288 13.9148 85.4964 14.7938 85.6772 15.6411C85.0522 16.2189 81.3478 18.5093 79.942 19.1935C79.8481 19.121 79.7038 19.0576 79.6352 18.9466C78.8796 17.7504 78.1355 16.5474 77.3937 15.3421C77.3227 15.2288 77.293 15.0861 77.2266 14.9026Z" fill="#02C088"/>
<path d="M3.45761 3.72656C5.42203 5.44613 7.27885 7.07054 9.1288 8.77877C8.79681 10.3262 8.46941 11.8396 8.14201 13.3575C8.92732 14.1029 9.94386 14.42 10.6925 15.0952C10.3583 15.9221 8.68005 18.634 8.06874 19.3408C7.32464 19.0644 3.87431 17.0209 2.30598 15.9244C2.30827 15.0453 2.64483 14.1935 2.80281 13.3122C2.96079 12.4241 3.18516 11.5473 3.39351 10.6071C2.28309 9.60571 1.17952 8.61339 0.0507812 7.59841C0.295762 7.04109 0.746807 6.71031 1.08795 6.30478C1.46114 5.85846 1.8641 5.43706 2.2579 5.00887C2.62422 4.61013 2.99742 4.21819 3.45761 3.72656Z" fill="#02C088"/>
<path d="M14.7337 1.23716C16.4692 0.836157 18.0604 0.475932 19.6539 0.253906C19.7363 0.355857 19.8096 0.403434 19.8211 0.464604C20.2561 2.48096 20.6842 4.49958 21.1261 6.57257C20.2492 7.58528 19.0793 8.3012 18.1291 9.34109C18.3764 10.0072 18.6282 10.68 18.8938 11.4005C18.2275 11.9306 17.4033 12.1187 16.6386 12.4268C15.8625 12.7417 15.084 13.0498 14.2667 13.3783C14.1133 13.1608 13.9576 13.0045 13.8797 12.8165C13.218 11.2079 12.5678 9.59483 11.897 7.93191C12.0618 7.7416 12.2038 7.53544 12.3869 7.37458C13.1242 6.72436 13.8751 6.08774 14.6192 5.44205C14.8642 5.22909 15.1 5.00027 15.3656 4.75332C15.1619 3.61147 14.9581 2.48096 14.7337 1.23716Z" fill="#02C088"/>
</svg>
