<svg width="74" height="78" viewBox="0 0 74 78" fill="none" xmlns="http://www.w3.org/2000/svg">
<path d="M19.7222 21.9674C19.5378 21.6695 19.3797 21.3858 19.1953 21.1224C18.567 20.2267 17.574 20.2307 16.9641 21.1345C16.6925 21.5378 16.4534 21.9614 16.192 22.3707C15.9974 22.6767 15.7421 22.8834 15.3814 23.0192C13.1542 23.8622 11.1216 25.0619 9.22078 26.4845C7.097 28.0733 5.89324 30.1991 5.82232 32.8559C5.73518 36.1895 5.69466 39.5312 6.23979 42.8425C7.00378 47.4852 8.61891 51.7733 11.4803 55.5528C12.7793 57.2692 14.283 58.779 15.9914 60.0841C16.2426 60.2766 16.4879 60.4792 16.729 60.6697C16.6257 60.9372 16.4352 60.8562 16.2994 60.844C14.5242 60.7021 12.7469 60.5603 10.9737 60.3961C10.1023 60.3151 9.22484 60.2482 8.37168 60.0658C5.84462 59.5268 4.14641 58.0454 3.45942 55.5123C3.34999 55.111 3.32971 54.6814 3.29526 54.2639C3.26892 53.9417 3.28312 53.6154 3.28312 53.2932C3.28312 43.8963 3.28312 34.5014 3.28109 25.1045C3.28109 23.2563 3.37227 21.4162 3.70259 19.5903C4.58818 14.674 6.82951 10.4994 10.5015 7.10704C13.209 4.60835 16.3541 2.85339 19.8356 1.67396C21.7122 1.03764 23.6293 0.569513 25.5909 0.304041C28.039 -0.0262804 30.4931 -0.0891021 32.9593 0.123681C34.7082 0.27567 36.4287 0.563434 38.1249 1.00319C43.331 2.35487 47.8643 4.84545 51.435 8.93697C52.351 9.98671 53.1738 11.1094 53.8405 12.3638C53.6216 12.7407 53.265 12.9758 52.9509 13.2453C49.6639 16.0804 46.3728 18.9115 43.0797 21.7405C42.6339 22.1235 42.2225 22.5308 41.9469 23.0577C41.6267 23.6717 41.4443 24.3182 41.4747 25.0173C41.5071 25.7611 41.5233 26.5068 41.5618 27.2505C41.5801 27.6153 41.5862 27.9578 41.2579 28.2192C40.8566 28.5374 40.5182 28.9022 39.9021 28.8191C38.7754 28.6671 37.6588 28.4948 36.5766 28.1442C35.1236 27.6741 33.7456 27.0317 32.4041 26.3082C30.9511 25.524 29.5082 24.7174 28.043 23.9575C26.1604 22.9807 24.1845 22.2734 22.0547 22.0769C21.313 22.01 20.5672 22.0059 19.7222 21.9674Z" fill="#02C088"/>
<path d="M51.192 34.2782C51.6236 34.9672 51.7898 35.6259 51.7979 36.3088C51.8121 37.4416 51.8081 38.5785 51.7412 39.7093C51.6541 41.1988 51.4068 42.67 51.1008 44.1311C51.0502 44.3743 50.961 44.6114 50.8698 44.9235C50.6712 44.8242 50.5253 44.7715 50.4017 44.6844C48.7115 43.4867 47.3396 41.9952 46.2696 40.222C46.1197 39.9727 45.9818 39.7093 45.7934 39.4904C45.2543 38.8663 44.3687 38.8865 43.852 39.5289C43.6899 39.7295 43.5683 39.9626 43.4365 40.1835C42.1659 42.3133 40.4677 44.0136 38.3459 45.2964C38.0703 45.4625 37.7866 45.6328 37.5516 45.8496C36.9355 46.4191 36.976 47.2641 37.6286 47.789C37.7785 47.9106 37.9569 47.9977 38.123 48.097C40.336 49.4163 42.1274 51.1631 43.4447 53.3862C43.5602 53.5807 43.6716 53.7814 43.8074 53.9617C44.3586 54.6892 45.3192 54.6953 45.8744 53.9698C46.0305 53.7652 46.15 53.5321 46.2818 53.3092C46.8472 52.3588 47.5119 51.4813 48.2819 50.6889C48.4339 50.5329 48.6102 50.3971 48.7865 50.2431C48.9385 50.545 48.7379 50.7274 48.6406 50.9118C47.0822 53.8482 44.9949 56.3368 42.3098 58.3066C40.0867 59.9379 37.6266 61.0768 34.9475 61.7131C32.1063 62.388 29.2348 62.5014 26.3612 61.9462C20.079 60.7303 15.3329 57.3176 12.0419 51.8542C10.3639 49.0697 9.37296 46.0381 8.80553 42.8524C8.45292 40.8664 8.34348 38.8622 8.31714 36.8519C8.30092 35.6846 8.307 34.5174 8.31714 33.3521C8.33132 31.9113 8.75082 30.6102 9.69314 29.4977C9.90188 29.2525 10.0984 28.989 10.4085 28.8978C10.8584 29.1876 11.29 29.4693 11.7277 29.7449C13.736 31.0115 15.3775 32.6388 16.6056 34.6754C16.7393 34.8983 16.8852 35.1132 17.0129 35.3381C17.404 36.0271 18.5713 36.1933 19.1468 35.3584C19.2562 35.1983 19.3535 35.0301 19.4508 34.8619C20.7052 32.7219 22.3933 31.0095 24.513 29.7206C24.7623 29.5686 25.0196 29.4268 25.2466 29.2464C26.0288 28.6283 26.0167 27.7083 25.2101 27.1267C24.817 26.843 24.3813 26.618 23.9841 26.3384C23.4815 25.9817 22.9972 25.6048 22.5169 25.2197C22.3771 25.1083 22.2798 24.9421 22.1035 24.7273C22.908 24.6746 23.5504 24.9077 24.1948 25.1022C25.6924 25.5521 27.0745 26.2654 28.4384 27.0152C29.8569 27.7954 31.2714 28.5898 32.7143 29.3234C34.1612 30.059 35.673 30.6346 37.2719 30.9608C37.3915 30.9852 37.5009 31.0642 37.6124 31.123C37.6326 31.1351 37.6387 31.1756 37.6792 31.2608C37.4361 31.4837 37.1868 31.7309 36.9213 31.9599C35.5696 33.1231 34.2139 34.2782 32.8602 35.4394C32.6393 35.6299 32.4184 35.8204 32.2117 36.0271C30.8742 37.3626 30.6513 39.1297 31.6788 40.7225C32.5319 42.0438 33.7336 42.7551 35.3609 42.6193C35.8918 42.5748 36.3843 42.4207 36.8119 42.1168C37.3124 41.7601 37.7968 41.3791 38.2629 40.9799C40.8467 38.767 43.4365 36.556 45.994 34.3127C46.4641 33.9013 46.9059 33.7574 47.4916 33.9256C47.832 34.0249 48.1907 34.0654 48.5373 34.1465C49.3904 34.339 50.2456 34.5133 51.192 34.2782ZM25.6945 51.7589C25.7168 52.0973 25.7188 52.3547 25.7573 52.608C25.814 52.9708 25.9761 53.2849 26.2781 53.5078C27.0239 54.059 28.0432 53.6659 28.2438 52.7357C28.3107 52.4277 28.3208 52.1054 28.3614 51.767C28.7504 51.7164 29.1071 51.7042 29.4455 51.6191C30.0089 51.4752 30.3757 50.9544 30.3635 50.393C30.3514 49.8601 29.9967 49.3737 29.4901 49.2339C29.3057 49.1832 29.1051 49.1913 28.9146 49.1629C28.7322 49.1366 28.5498 49.1001 28.3472 49.0637C28.3147 48.7273 28.3087 48.4375 28.258 48.1558C28.185 47.7606 28.0027 47.4283 27.6156 47.2398C26.809 46.8446 25.9417 47.2803 25.7674 48.1882C25.7147 48.4679 25.7127 48.7597 25.6904 49.0089C25.6235 49.0596 25.5992 49.092 25.5708 49.0961C25.4128 49.1224 25.2547 49.1427 25.0966 49.165C24.9041 49.1913 24.7055 49.1893 24.5231 49.246C24.0327 49.398 23.6902 49.9107 23.7004 50.4417C23.7105 51.0152 24.0834 51.5036 24.6589 51.6353C24.9629 51.7082 25.2871 51.7143 25.6945 51.7589Z" fill="#02C088"/>
<path d="M19.7101 63.6625C20.7416 63.6625 21.6495 63.6402 22.5533 63.6726C22.9019 63.6848 23.2504 63.8105 23.5909 63.9057C27.0441 64.8845 30.5418 65.0912 34.0781 64.465C34.9677 64.3069 35.8411 64.0476 36.7247 63.8571C37.1665 63.7618 37.6164 63.6767 38.0642 63.6585C38.8384 63.626 39.6145 63.6504 40.2873 63.6504C41.031 64.3414 41.6856 65.0162 42.4111 65.6039C43.4264 66.4267 44.6159 66.9617 45.84 67.3994C46.9383 67.7905 48.0529 68.133 49.1634 68.4856C50.9528 69.0551 52.7544 69.5901 54.4465 70.425C56.8115 71.5902 58.684 73.2702 59.8918 75.6432C60.0417 75.9351 60.1734 76.2208 60.1593 76.5613C60.1329 77.2199 59.679 77.7245 59.0183 77.7954C58.7934 77.8197 58.5644 77.8116 58.3374 77.8116C39.501 77.8116 20.6666 77.8116 1.83023 77.8116C1.6681 77.8116 1.50395 77.7934 1.34386 77.8116C0.456246 77.9109 -0.370574 76.9058 0.174557 75.8236C0.70145 74.7739 1.34589 73.8092 2.16055 72.9581C3.55479 71.499 5.24287 70.4858 7.1255 69.815C8.89261 69.1848 10.6942 68.6498 12.4816 68.0742C13.8697 67.6264 15.2478 67.1582 16.5265 66.4368C17.6978 65.7762 18.7313 64.9615 19.5379 63.8753C19.5946 63.7983 19.6595 63.7253 19.7101 63.6625Z" fill="#02C088"/>
<path d="M70.4805 9.9151C68.5026 11.6194 66.5916 13.2629 64.7252 14.8719C64.6867 15.2185 64.9096 15.3462 65.0454 15.5103C65.6493 16.2297 66.2714 16.9349 66.8814 17.6503C67.0496 17.8469 67.2239 18.0434 67.3556 18.2643C67.6535 18.7649 67.5744 19.3708 67.1854 19.7943C66.8064 20.2057 66.1782 20.3435 65.6716 20.0922C65.4426 19.9808 65.2419 19.8106 64.9724 19.6302C64.7596 19.7903 64.5245 19.9484 64.3118 20.1307C61.1909 22.8118 58.0701 25.4969 54.9513 28.1821C53.7962 29.1751 52.6269 30.1518 51.4961 31.1712C50.8942 31.7143 50.2802 31.9595 49.4595 31.7406C48.584 31.5076 47.6782 31.3961 46.7966 31.1833C46.211 31.0435 45.7631 31.1509 45.299 31.5603C43.1327 33.4632 40.936 35.3336 38.7514 37.2142C37.8921 37.9539 37.0329 38.6936 36.1716 39.4312C36.0237 39.5569 35.8798 39.6906 35.7197 39.798C35.1138 40.2074 34.4349 40.1243 33.9729 39.5913C33.5048 39.0502 33.4825 38.3531 33.9952 37.8364C34.4957 37.3318 35.0571 36.888 35.5981 36.4219C38.2508 34.14 40.9076 31.8622 43.5603 29.5804C43.7569 29.4122 43.9413 29.2298 44.1906 28.9967C44.1642 28.332 44.1399 27.6227 44.1075 26.9135C44.0811 26.3298 44.0487 25.7482 44.0102 25.1666C43.9697 24.5668 44.2047 24.1047 44.6546 23.7217C45.8624 22.6922 47.0621 21.6506 48.2659 20.6151C51.3867 17.932 54.5095 15.2529 57.6304 12.5678C57.8715 12.3611 58.0924 12.1321 58.3376 11.897C58.2099 11.664 58.0863 11.4755 58.0012 11.2708C57.7763 10.7358 57.9262 10.1502 58.3619 9.77528C58.7976 9.40037 59.5069 9.36389 59.9872 9.72664C60.2162 9.90092 60.4067 10.1299 60.5972 10.3488C61.1727 11.0074 61.7381 11.6741 62.3116 12.3368C62.4595 12.507 62.6176 12.6671 62.798 12.8596C62.9216 12.8069 63.0553 12.7826 63.1425 12.7076C64.94 11.1695 66.7334 9.62734 68.5269 8.08314C68.5735 8.04261 68.6019 7.97776 68.6688 7.88049C68.5897 7.58664 68.3344 7.38197 68.1358 7.13879C67.9311 6.8875 67.7001 6.65648 67.5238 6.38695C67.155 5.82561 67.2401 5.12038 67.694 4.69887C68.227 4.2044 68.8694 4.18819 69.451 4.66442C69.6009 4.78601 69.7347 4.92989 69.8624 5.07783C71.0499 6.44977 72.2354 7.82375 73.4189 9.19975C73.5445 9.34768 73.6661 9.5017 73.7715 9.66382C74.1545 10.2596 74.0471 10.975 73.5182 11.4107C73.046 11.7977 72.2881 11.7977 71.818 11.3641C71.5099 11.0803 71.2546 10.7399 70.9709 10.4278C70.8412 10.286 70.7034 10.1502 70.4805 9.9151Z" fill="#02C088"/>
<path d="M53.4535 32.9385C54.2155 32.0671 56.1163 30.4723 56.7202 30.1865C56.8803 30.2433 56.858 30.3892 56.8641 30.5087C56.8763 30.8006 56.8742 31.0924 56.8742 31.3842C56.8742 38.6756 56.8742 45.969 56.8742 53.2604C56.8742 53.5846 56.8742 53.9088 56.8682 54.2331C56.8276 57.0276 54.8113 59.4899 51.8161 60.0634C50.894 60.2397 49.9557 60.3288 49.0195 60.42C47.4388 60.574 45.8561 60.6977 44.2734 60.8274C44.0181 60.8476 43.7587 60.8294 43.5054 60.8294C43.402 60.5538 43.6391 60.4889 43.7708 60.3775C44.5389 59.731 45.3495 59.1291 46.0811 58.4442C48.9506 55.7591 50.9791 52.5106 52.343 48.8446C53.796 44.9415 54.3816 40.8885 54.3634 36.7382C54.3553 35.4413 54.179 34.7563 53.4535 32.9385Z" fill="#02C088"/>
<path d="M18.0808 24.2207C18.7576 24.9705 19.3555 25.6879 20.0121 26.3445C20.6463 26.9768 21.3435 27.5482 22.0669 28.1967C21.3556 28.831 20.6403 29.4167 19.9898 30.0652C19.3332 30.7197 18.7394 31.4371 18.0767 32.1707C17.4283 31.4472 16.8406 30.7299 16.188 30.0773C15.5335 29.4228 14.8141 28.8351 14.0967 28.1967C14.8242 27.5503 15.5476 26.9646 16.2042 26.31C16.8426 25.6717 17.412 24.9705 18.0808 24.2207Z" fill="#02C088"/>
<path d="M48.8616 46.8041C47.3701 47.9511 46.0407 49.2136 44.91 50.7599C44.7357 50.6099 44.5756 50.5147 44.4702 50.3769C43.54 49.165 42.4741 48.093 41.2582 47.1648C41.1325 47.0696 41.0211 46.952 40.8569 46.8021C41.5054 46.0928 42.314 45.6125 42.9341 44.9276C43.5603 44.2365 44.1804 43.5414 44.8451 42.8018C45.4855 43.511 46.0772 44.2244 46.7318 44.8749C47.3904 45.5355 48.1118 46.1313 48.8616 46.8041Z" fill="#02C088"/>
</svg>
