<svg width="82" height="79" viewBox="0 0 82 79" fill="none" xmlns="http://www.w3.org/2000/svg">
<path d="M13.959 24.2476C14.1346 23.7117 14.2867 23.1848 14.4805 22.6724C15.9036 18.9262 18.5092 16.3985 22.2988 15.0767C23.349 14.711 24.43 14.5462 25.529 14.4557C25.7028 14.4412 25.8767 14.4285 26.0487 14.4285C26.3818 14.4267 26.5593 14.2782 26.6697 13.9487C26.9377 13.1556 27.2165 12.3626 27.5533 11.5967C28.9638 8.39726 31.1275 5.80261 33.9467 3.74572C36.3965 1.95861 39.127 0.870414 42.1073 0.305493C47.3672 -0.692172 53.6338 0.767207 58.0573 4.48627C61.8958 7.71284 64.2207 11.7904 65.0282 16.7317C65.1495 17.4722 65.1912 18.2236 65.2727 18.995C65.729 19.2285 66.2269 19.2267 66.7049 19.2883C69.4734 19.6504 72.0572 20.5195 74.3748 22.0948C77.3986 24.1481 79.5061 26.9202 80.6505 30.3893C82.233 35.1894 81.8745 39.8735 79.5768 44.3693C78.0739 47.3116 75.7998 49.5369 72.8756 51.0886C70.9346 52.1189 68.874 52.7599 66.694 53.0043C65.8901 53.0948 65.0789 53.1274 64.2714 53.1763C64.132 53.1854 63.9907 53.1491 63.8622 53.1347C63.6413 52.8232 63.7228 52.4937 63.7209 52.1841C63.7137 49.7234 63.7173 47.2627 63.7155 44.8003C63.7155 44.4236 63.7083 44.047 63.6956 43.6722C63.5544 39.9333 60.8963 36.4532 56.797 35.5624C55.9859 35.3849 55.1294 35.365 54.2929 35.3632C46.7335 35.3487 39.174 35.3541 31.6146 35.3541C30.1371 35.3541 28.6596 35.3451 27.184 35.3578C26.3148 35.365 25.4475 35.4012 24.5984 35.6185C21.2414 36.4785 18.5291 39.2651 18.0891 42.843C18.0149 43.4441 17.9696 44.0543 17.966 44.659C17.9533 47.1487 17.9623 49.6383 17.9587 52.1298C17.9587 52.443 17.9967 52.7617 17.8682 53.1147C17.6998 53.1365 17.535 53.1763 17.3703 53.1763C16.1245 53.1763 14.8788 53.2017 13.6349 53.1546C11.4277 53.0713 9.35273 52.4702 7.43345 51.3765C4.4658 49.6836 2.28579 47.279 1.02377 44.0887C-1.47854 37.7677 0.717767 30.5523 6.39414 26.7644C8.56329 25.3159 10.928 24.4758 13.5408 24.3472C13.6277 24.3436 13.7128 24.3273 13.7979 24.3128C13.8286 24.3074 13.8558 24.2911 13.959 24.2476Z" fill="#02C088"/>
<path d="M40.8436 38.2385C45.5078 38.2385 50.1721 38.244 54.8363 38.2331C55.9353 38.2313 56.971 38.4576 57.9144 39.0044C59.7594 40.0745 60.7082 41.715 60.8748 43.8244C60.8929 44.0543 60.8856 44.2879 60.8856 44.5197C60.8856 53.6707 60.8838 62.8217 60.8893 71.9727C60.8893 72.7005 60.8476 73.423 60.6122 74.1147C59.7703 76.588 58.0176 77.9387 55.4465 78.2574C55.1024 78.3009 54.753 78.2954 54.4053 78.2954C45.3666 78.2972 36.3279 78.2991 27.2891 78.29C26.7133 78.29 26.1267 78.252 25.5636 78.1415C22.8512 77.6056 20.9265 75.3441 20.798 72.5828C20.7853 72.3221 20.7889 72.0614 20.7889 71.8006C20.7889 62.7655 20.7889 53.7304 20.7871 44.6953C20.7871 44.0851 20.8125 43.484 20.9392 42.8828C21.4951 40.2393 23.791 38.3001 26.5015 38.2458C28.1528 38.2132 29.8041 38.2367 31.4554 38.2367C34.586 38.2385 37.7148 38.2385 40.8436 38.2385ZM50.5324 60.667C50.5432 60.7231 50.5541 60.7774 50.565 60.8336C50.0055 61.2428 49.4369 61.6393 48.8901 62.0648C48.6421 62.2567 48.3958 62.4776 48.2238 62.7348C47.925 63.1784 47.9359 63.669 48.2039 64.1326C48.4682 64.5889 48.8575 64.8478 49.4098 64.8478C49.8081 64.846 50.1322 64.6902 50.4437 64.4621C51.7274 63.5188 53.0166 62.5881 54.3021 61.6484C54.5828 61.4438 54.8689 61.2428 55.1242 61.0092C55.8865 60.3121 56.12 59.28 55.7796 58.3113C55.5877 57.7682 55.2346 57.3698 54.7783 57.0385C53.3986 56.0336 52.0243 55.0178 50.6446 54.0111C50.4581 53.8753 50.2644 53.7449 50.058 53.6417C49.4931 53.361 48.805 53.5023 48.3958 53.9676C47.9721 54.4492 47.9033 55.1264 48.2618 55.6551C48.4049 55.8652 48.6022 56.048 48.805 56.2056C49.2848 56.5786 49.7828 56.928 50.2698 57.292C50.3767 57.3716 50.5324 57.4259 50.4944 57.6704C50.2282 57.6812 49.9512 57.6975 49.6723 57.6994C48.6891 57.7048 47.7078 57.7102 46.7264 57.8442C45.2634 58.0434 43.9072 58.4671 42.7394 59.4014C42.6416 59.4792 42.5022 59.5046 42.3048 59.5879C42.3048 56.5478 42.3048 53.5982 42.3084 50.6487C42.3084 50.5763 42.3573 50.502 42.4044 50.3699C42.5203 50.4749 42.6126 50.5346 42.6742 50.6179C43.0218 51.0814 43.3568 51.554 43.7044 52.0157C43.8602 52.2222 44.0195 52.4358 44.2114 52.6042C44.8053 53.1239 45.6165 53.0478 46.1524 52.4684C46.6051 51.9795 46.6214 51.1484 46.176 50.5509C45.0679 49.0662 43.9941 47.5561 42.8915 46.0696C42.5167 45.5644 41.9952 45.2512 41.3723 45.1353C40.266 44.9307 39.3698 45.2964 38.7071 46.1909C37.6388 47.634 36.5922 49.0897 35.5384 50.5419C35.4533 50.6578 35.3718 50.7791 35.3121 50.9094C35.0152 51.554 35.2089 52.2656 35.7865 52.6857C36.3315 53.0822 37.0105 53.0424 37.5356 52.5589C37.7257 52.3851 37.8832 52.1715 38.0389 51.965C38.3685 51.5251 38.6853 51.076 39.0112 50.6324C39.0909 50.5256 39.1561 50.3717 39.3842 50.4694C39.3915 50.7374 39.4078 51.0235 39.4078 51.3096C39.4096 53.5385 39.4096 55.7674 39.4096 57.9963C39.4096 58.4019 39.4168 58.8075 39.3987 59.2112C39.3933 59.3307 39.3118 59.4484 39.2738 59.5426C38.6745 59.1931 38.1458 58.8364 37.5772 58.5594C36.2772 57.9239 34.8649 57.7682 33.4435 57.7048C32.808 57.6776 32.1688 57.7012 31.5315 57.6939C31.4011 57.6921 31.2363 57.7446 31.1494 57.5056C31.6908 57.1018 32.2449 56.6926 32.7935 56.2762C32.9764 56.1368 33.1683 55.9992 33.3168 55.8253C33.7205 55.3473 33.7749 54.7389 33.4707 54.2066C33.1665 53.6725 32.6957 53.4624 32.0873 53.5023C31.7795 53.5222 31.5351 53.6652 31.3015 53.8354C30.6207 54.3261 29.9435 54.8222 29.2664 55.3165C28.4479 55.9141 27.6259 56.5043 26.8129 57.1109C26.0597 57.6722 25.703 58.4327 25.7736 59.3724C25.8334 60.1727 26.2299 60.7937 26.8691 61.2627C27.8269 61.9634 28.7902 62.6551 29.7498 63.354C30.3346 63.7795 30.9014 64.234 31.5079 64.6251C32.1127 65.0162 32.8768 64.8713 33.3131 64.3462C33.7622 63.8048 33.7767 63.0534 33.3186 62.5102C33.1538 62.3147 32.9365 62.159 32.7283 62.0033C32.2648 61.6556 31.7904 61.3224 31.3269 60.9784C31.2436 60.9169 31.1132 60.8716 31.1621 60.6923C31.2237 60.6706 31.2979 60.6217 31.3721 60.6217C32.3861 60.6181 33.4001 60.6 34.4122 60.6326C35.1437 60.6561 35.8408 60.8807 36.48 61.2301C38.3395 62.2441 39.3136 63.8302 39.3933 65.936C39.4386 67.1219 39.4023 68.3097 39.4096 69.4957C39.4114 69.7546 39.4114 70.0208 39.4621 70.2725C39.5961 70.9333 40.0777 71.3589 40.7114 71.415C41.3868 71.4747 41.9499 71.1217 42.1763 70.4409C42.265 70.1729 42.2849 69.8741 42.2885 69.5899C42.3012 68.4039 42.2867 67.2161 42.3012 66.0283C42.3048 65.6553 42.3302 65.2733 42.4098 64.9093C42.9965 62.1807 45.3576 60.6127 47.7023 60.6109C48.4845 60.6091 49.2667 60.6072 50.0489 60.6127C50.2101 60.6199 50.3712 60.6507 50.5324 60.667Z" fill="#02C088"/>
</svg>
