<svg xmlns="http://www.w3.org/2000/svg" width="1197" height="282" fill="none"><path fill="#F40" d="M1.401 218.605a1 1 0 0 1-.946-1.324L74.768 1.019a1 1 0 0 1 .946-.675h68.007c.427 0 .806.27.945.673l74.749 216.262a1 1 0 0 1-.945 1.326h-56.744a.999.999 0 0 1-.956-.706l-12.457-40.628a1 1 0 0 0-.956-.707h-76.02a1 1 0 0 0-.953.698l-12.887 40.646a1 1 0 0 1-.953.697H1.4Zm82.79-84.499a1 1 0 0 0 .956 1.296h48.847a1 1 0 0 0 .955-1.296l-3.552-11.448c-6.864-23.254-13.595-46.106-20.575-71.503-.269-.979-1.66-.982-1.934-.005-7.11 25.4-13.859 48.253-21.144 71.508l-3.552 11.448Zm139.624 84.499a1 1 0 0 1-1-1V64.918a1 1 0 0 1 1-1h46.779a1 1 0 0 1 1 1v26.246h.439c5.567-19.629 17.139-27.832 37.793-27.832 4.997 0 8.998.124 12.806.259a1 1 0 0 1 .964.999v39.596a1 1 0 0 1-1.037 1.001c-4.124-.154-12.18-.4-18.885-.4-18.018 0-30.469 12.598-30.469 34.57v78.248a1 1 0 0 1-1 1h-48.39Zm103.582 61.231a1 1 0 0 1-1-1V64.918a1 1 0 0 1 1-1h47.804a1 1 0 0 1 1 1v19.215h.733c9.228-15.674 24.463-23.584 44.531-23.584 39.111 0 66.357 33.105 66.357 80.42 0 48.926-26.22 81.006-66.796 81.006-20.362 0-35.596-9.229-43.653-26.368h-.586v83.229a1 1 0 0 1-1 1h-48.39Zm79.42-98.145c18.603 0 30.029-15.234 30.029-40.722 0-25.196-11.426-40.283-30.029-40.283-19.043 0-32.08 15.82-32.08 40.283 0 24.756 13.037 40.722 32.08 40.722Zm163.22 40.43c-47.461 0-79.687-33.691-79.687-80.859 0-47.168 32.519-80.86 78.369-80.86 46.435 0 78.516 32.813 78.516 79.688v12.623a1 1 0 0 1-1 1H540.599a.989.989 0 0 0-.989 1.034c.961 19.031 12.615 31.046 32.185 31.046 14.475 0 24.883-6.169 28.757-16.039.154-.393.529-.66.952-.66h43.359a.986.986 0 0 1 .97 1.181c-6.275 30.569-37.18 51.846-75.796 51.846Zm-30.175-98.584h60.351c-2.197-16.26-13.33-25.928-30.176-25.928-16.992 0-27.978 9.668-30.175 25.928Zm191.931 158.35c-46.987 0-69.859-20.976-74.954-50.112a.99.99 0 0 1 .978-1.158h46.259c.451 0 .844.304.98.734 2.925 9.23 12.606 14.794 26.737 14.794 18.75 0 28.711-10.547 28.711-31.055v-23.788a.089.089 0 0 0-.17-.036c-8.21 18.273-24.166 26.314-44.361 26.314-40.576 0-66.944-32.519-66.944-77.93 0-45.996 27.247-79.101 66.504-79.101 20.069 0 35.157 8.789 44.825 25.049a.146.146 0 0 0 .146-.147V64.918a1 1 0 0 1 1-1h48.098a1 1 0 0 1 1 1v145.191c0 50.391-30.469 71.778-78.809 71.778Zm-1.758-103.858c19.043 0 32.08-15.381 32.08-39.258 0-23.73-13.037-39.11-32.08-39.11-18.457 0-29.882 14.648-29.882 39.11 0 24.61 11.425 39.258 29.882 39.258Zm166.157 103.858c-46.988 0-69.86-20.976-74.954-50.112a.99.99 0 0 1 .977-1.158h46.26c.451 0 .843.304.98.734 2.925 9.23 12.605 14.794 26.737 14.794 18.75 0 28.711-10.547 28.711-31.055v-23.731a.146.146 0 0 0-.147-.146c-8.203 18.31-24.17 26.367-44.385 26.367-40.576 0-66.943-32.519-66.943-77.93 0-45.996 27.246-79.101 66.504-79.101 20.068 0 35.156 8.789 44.824 25.049a.147.147 0 0 0 .147-.147V64.918a1 1 0 0 1 1-1H974a1 1 0 0 1 1 1v145.191c0 50.391-30.469 71.778-78.808 71.778Zm-1.758-103.858c19.043 0 32.08-15.381 32.08-39.258 0-23.73-13.037-39.11-32.08-39.11-18.457 0-29.883 14.648-29.883 39.11 0 24.61 11.426 39.258 29.883 39.258Zm85.838 40.576a1 1 0 0 1-1-1V64.918a1 1 0 0 1 1-1h48.388c.55 0 1 .448 1 1v152.687c0 .553-.45 1-1 1h-48.388Zm134.518 3.516c-48.49 0-81.45-31.787-81.45-80.859 0-48.78 32.96-80.86 81.45-80.86 48.48 0 81.3 32.08 81.3 80.86 0 49.072-32.82 80.859-81.3 80.859Zm0-40.137c17.58 0 30.32-14.502 30.32-40.722 0-26.074-12.74-40.723-30.32-40.723s-30.33 14.649-30.33 40.723c0 26.22 12.6 40.722 30.33 40.722ZM1029 27c0 13.255-10.97 24-24.5 24-13.526 0-24.5-10.745-24.5-24s10.966-24 24.5-24c13.53 0 24.5 10.745 24.5 24Zm148 39c-2.62 0-5.09-.474-7.38-1.435-2.3-.962-4.32-2.282-6.06-3.976a18.698 18.698 0 0 1-4.09-5.898c-.98-2.24-1.47-4.636-1.47-7.191 0-2.555.49-4.952 1.47-7.19a18.538 18.538 0 0 1 4.09-5.9c1.74-1.693 3.76-3.013 6.06-3.975 2.29-.947 4.76-1.435 7.38-1.435s5.09.474 7.39 1.435c2.29.962 4.31 2.282 6.05 3.976a18.7 18.7 0 0 1 4.09 5.898c.97 2.24 1.47 4.636 1.47 7.191 0 2.555-.49 4.952-1.47 7.19a18.698 18.698 0 0 1-4.09 5.9c-1.74 1.693-3.76 3.013-6.05 3.975-2.29.961-4.77 1.435-7.39 1.435Zm0-3.444c2.85 0 5.44-.675 7.77-2.038 2.33-1.35 4.2-3.172 5.58-5.44 1.39-2.268 2.1-4.794 2.1-7.564 0-2.77-.69-5.296-2.1-7.563a15.739 15.739 0 0 0-5.58-5.44c-2.33-1.349-4.92-2.038-7.77-2.038-2.84 0-5.44.675-7.77 2.038-2.33 1.364-4.2 3.172-5.58 5.44-1.39 2.267-2.1 4.793-2.1 7.563 0 2.77.7 5.296 2.1 7.564 1.38 2.268 3.25 4.09 5.58 5.44 2.33 1.363 4.93 2.038 7.77 2.038Zm-6.43-23.796h8.41c.88 0 1.73.2 2.58.617a5.548 5.548 0 0 1 2.06 1.808c.54.79.81 1.765.81 2.928 0 1.162-.28 2.153-.84 3a5.7 5.7 0 0 1-2.14 1.937 5.72 5.72 0 0 1-2.67.675h-6.5v-2.34h5.69c.81 0 1.54-.287 2.17-.847.65-.56.96-1.363.96-2.41 0-1.048-.33-1.852-.96-2.312a3.496 3.496 0 0 0-2.09-.688h-4.41v14.725h-3.07V38.76Zm10.2 9.128 4.37 7.936h-3.42l-4.25-7.936h3.3Z"/></svg>